<?xml version="1.0" encoding="UTF-8"?><svg id="Capa_1" xmlns="http://www.w3.org/2000/svg" xmlns:xlink="http://www.w3.org/1999/xlink" viewBox="0 0 1800.84 1292.48"><defs><style>.cls-1{fill:url(#linear-gradient-2);}.cls-2{fill:#fff;}.cls-3{fill:#98d3db;}.cls-4{fill:#f9d9e0;}.cls-5{fill:#c1e7ea;}.cls-6{fill:#e6e6e6;}.cls-7{fill:#f2ac57;}.cls-8{fill:#afc3c4;}.cls-9{fill:#cdcec8;}.cls-10{fill:url(#linear-gradient);}.cls-11{fill:#343659;}</style><linearGradient id="linear-gradient" x1="1076" y1="1119.21" x2="1139.31" y2="1119.21" gradientTransform="matrix(1, 0, 0, 1, 0, 0)" gradientUnits="userSpaceOnUse"><stop offset="0" stop-color="#cdcec8"/><stop offset="1" stop-color="#fff"/></linearGradient><linearGradient id="linear-gradient-2" x1="1261.55" y1="1092.43" x2="1324.49" y2="1147.33" xlink:href="#linear-gradient"/></defs><polygon class="cls-10" points="1058.95 1141.53 1206.18 1141.53 1149.67 1096.89 1058.95 1141.53"/><path class="cls-11" d="M1796.89,919.47v-1.98H1.98v3.95H1798.86v-1.98h-1.98Z"/><path class="cls-11" d="M0,982.28v157.07H309.32v-157.07H0Zm305.37,153.11H3.95v-149.16H305.37v149.16Z"/><rect class="cls-6" x="86.6" y="1049.95" width="136.12" height="21.74"/><path class="cls-11" d="M0,1135.41v157.07H309.32v-157.07H0Zm305.37,153.11H3.95v-149.16H305.37v149.16Z"/><rect class="cls-6" x="86.6" y="1203.07" width="136.12" height="21.74"/><path class="cls-11" d="M652.41,982.28v183.56h785.77v-183.56H652.41Zm781.81,179.6H656.36v-175.65h777.86v175.65Z"/><g><rect class="cls-5" x="93.32" y="1.97" width="247.24" height="644.71"/><rect class="cls-5" x="372.8" y="1.97" width="247.24" height="644.71"/></g><g><path class="cls-11" d="M91.34,0V648.66h251.2V0H91.34Zm247.25,644.7H95.29V3.95h243.29V644.7Z"/><path class="cls-11" d="M370.83,0V648.66h251.19V0h-251.19Zm247.24,644.7h-243.28V3.95h243.28V644.7Z"/></g><g><polygon class="cls-2" points="612.83 209.28 506.78 46.53 473.3 46.53 612.83 209.28"/><polygon class="cls-2" points="612.83 622.56 506.78 459.81 473.3 459.81 612.83 622.56"/><polygon class="cls-2" points="622.56 375.12 466.35 127.91 417.03 127.91 622.56 375.12"/></g><polygon class="cls-9" points="961.6 360.47 775.01 360.47 775.01 741.32 775.01 844.39 1056.5 844.39 1056.5 882.74 911 882.74 911 919.47 1295.3 919.47 1295.3 882.74 1149.8 882.74 1149.8 844.39 1454.71 844.39 1454.71 741.32 1454.71 360.47 961.6 360.47"/><g><rect class="cls-6" x="1037.99" y="787.67" width="93.3" height="113.43"/><rect class="cls-11" x="943.09" y="360.47" width="493.11" height="380.85"/><rect class="cls-2" x="756.5" y="741.32" width="679.7" height="103.07"/><rect class="cls-6" x="756.5" y="360.47" width="186.59" height="380.85"/><path class="cls-8" d="M828.8,398.44c0,5.64,4.57,10.2,10.2,10.2h72.61c5.64,0,10.2-4.57,10.2-10.2h0c0-5.64-4.57-10.2-10.2-10.2h-72.61c-5.64,0-10.2,4.57-10.2,10.2h0Z"/><path class="cls-3" d="M782.29,433.14c0,5.64,4.57,10.2,10.2,10.2h72.61c5.64,0,10.2-4.57,10.2-10.2h0c0-5.64-4.57-10.2-10.2-10.2h-72.61c-5.64,0-10.2,4.57-10.2,10.2h0Z"/><path class="cls-8" d="M828.8,471.92c0,5.64,4.57,10.2,10.2,10.2h72.61c5.64,0,10.2-4.57,10.2-10.2h0c0-5.64-4.57-10.2-10.2-10.2h-72.61c-5.64,0-10.2,4.57-10.2,10.2h0Z"/><path class="cls-3" d="M782.29,506.61c0,5.64,4.57,10.2,10.2,10.2h72.61c5.64,0,10.2-4.57,10.2-10.2h0c0-5.64-4.57-10.2-10.2-10.2h-72.61c-5.64,0-10.2,4.57-10.2,10.2h0Z"/><path class="cls-8" d="M828.8,545.39c0,5.64,4.57,10.2,10.2,10.2h72.61c5.64,0,10.2-4.57,10.2-10.2h0c0-5.64-4.57-10.2-10.2-10.2h-72.61c-5.64,0-10.2,4.57-10.2,10.2h0Z"/><path class="cls-3" d="M782.29,580.09c0,5.64,4.57,10.2,10.2,10.2h72.61c5.64,0,10.2-4.57,10.2-10.2h0c0-5.64-4.57-10.2-10.2-10.2h-72.61c-5.64,0-10.2,4.57-10.2,10.2h0Z"/><path class="cls-8" d="M828.8,618.86c0,5.64,4.57,10.2,10.2,10.2h72.61c5.64,0,10.2-4.57,10.2-10.2h0c0-5.64-4.57-10.2-10.2-10.2h-72.61c-5.64,0-10.2,4.57-10.2,10.2h0Z"/><path class="cls-3" d="M782.29,653.56c0,5.64,4.57,10.2,10.2,10.2h72.61c5.64,0,10.2-4.57,10.2-10.2h0c0-5.64-4.57-10.2-10.2-10.2h-72.61c-5.64,0-10.2,4.57-10.2,10.2h0Z"/><path class="cls-2" d="M772.67,706.62c0,11.84,9.59,21.43,21.43,21.43h111.39c11.84,0,21.43-9.59,21.43-21.43h0c0-11.84-9.59-21.43-21.43-21.43h-111.39c-11.84,0-21.43,9.59-21.43,21.43h0Z"/><path class="cls-3" d="M782.29,706.62c0,6.9,5.59,12.49,12.49,12.49h0c6.9,0,12.49-5.59,12.49-12.49h0c0-6.9-5.59-12.49-12.49-12.49h0c-6.9,0-12.49,5.59-12.49,12.49h0Z"/><path class="cls-7" d="M1084.64,741.32v-45.08c0-57.99,47.01-105,105-105s105,47.01,105,105v45.08h-210Z"/><g><path class="cls-4" d="M1126.18,482.24v32.83c0,35.06,28.41,63.46,63.46,63.46,17.53,0,33.39-7.09,44.88-18.58,11.47-11.49,18.58-27.35,18.58-44.88v-32.83c0-35.06-28.41-63.46-63.46-63.46-17.53,0-33.39,7.09-44.88,18.58-4.99,4.99-9.15,10.81-12.25,17.24-2.19,4.49-3.83,9.28-4.9,14.29v.02c-.94,4.31-1.42,8.75-1.42,13.33Z"/><path class="cls-4" d="M1110.99,510.14c0,8.55,6.93,15.48,15.48,15.48h126.35c8.55,0,15.48-6.93,15.48-15.48h0c0-8.55-6.93-15.48-15.48-15.48h-126.35c-8.55,0-15.48,6.93-15.48,15.48h0Z"/><path class="cls-7" d="M1127.6,468.89v.02c53.81,15.1,92.81-18.03,92.81-18.03,0,36.46,32.41,43.79,32.41,43.79l.28-.24v-12.19c0-35.06-28.41-63.46-63.46-63.46-17.53,0-33.39,7.09-44.88,18.58-8.47,8.49-14.57,19.37-17.16,31.53Z"/><path class="cls-7" d="M1126.18,482.24v11.93l.28,.5s23.17-8.05,26.11-41.6l-20.07,1.53c-2.19,4.49-3.83,9.28-4.9,14.29v.02c-.94,4.31-1.42,8.75-1.42,13.33Z"/></g><rect class="cls-4" x="1162.99" y="566.35" width="53.31" height="46.11"/><polygon class="cls-4" points="1216.3 612.46 1189.64 626.65 1162.99 612.46 1197.76 601.39 1216.3 612.46"/><rect class="cls-6" x="892.49" y="882.74" width="384.3" height="36.73"/></g><path class="cls-11" d="M1456.69,846.36V358.49H754.53v487.87h281.49v34.4h-145.51v40.69h406.77v-40.69h-145.5v-34.4h304.91Zm-163.36,71.13h-398.86v-32.78h145.51v-42.3h-281.49V362.45h694.25v479.96h-304.91v42.3h145.5v32.78Z"/><g><g><polygon class="cls-2" points="699.86 1141.46 1055.5 1141.46 1149.67 1058.21 794.04 1058.21 699.86 1141.46"/><polygon class="cls-6" points="857.87 1136.19 959.82 1136.19 975.37 1122.45 873.41 1122.45 857.87 1136.19"/><polygon class="cls-6" points="1025.69 1136.19 1045.08 1136.19 1060.62 1122.45 1041.24 1122.45 1025.69 1136.19"/><polygon class="cls-6" points="999.59 1136.19 1018.98 1136.19 1034.52 1122.45 1015.14 1122.45 999.59 1136.19"/><polygon class="cls-6" points="973.23 1136.19 992.61 1136.19 1008.15 1122.45 988.77 1122.45 973.23 1136.19"/><g><polygon class="cls-6" points="829.7 1136.19 849.08 1136.19 864.62 1122.45 845.24 1122.45 829.7 1136.19"/><polygon class="cls-6" points="803.6 1136.19 822.98 1136.19 838.52 1122.45 819.14 1122.45 803.6 1136.19"/><polygon class="cls-6" points="777.23 1136.19 796.61 1136.19 812.16 1122.45 792.77 1122.45 777.23 1136.19"/><polygon class="cls-6" points="749.11 1136.19 768.49 1136.19 784.03 1122.45 764.65 1122.45 749.11 1136.19"/><polygon class="cls-6" points="722.74 1136.19 742.12 1136.19 757.67 1122.45 738.28 1122.45 722.74 1136.19"/></g><g><g><polygon class="cls-6" points="1048.3 1116.21 1067.68 1116.21 1083.23 1102.47 1063.84 1102.47 1048.3 1116.21"/><polygon class="cls-6" points="1022.2 1116.21 1041.58 1116.21 1057.12 1102.47 1037.74 1102.47 1022.2 1116.21"/><polygon class="cls-6" points="995.83 1116.21 1015.21 1116.21 1030.76 1102.47 1011.37 1102.47 995.83 1116.21"/><polygon class="cls-6" points="967.71 1116.21 987.09 1116.21 1002.63 1102.47 983.25 1102.47 967.71 1116.21"/><polygon class="cls-6" points="941.34 1116.21 960.72 1116.21 976.27 1102.47 956.88 1102.47 941.34 1116.21"/></g><g><polygon class="cls-6" points="915.47 1116.21 934.86 1116.21 950.4 1102.47 931.02 1102.47 915.47 1116.21"/><polygon class="cls-6" points="889.37 1116.21 908.76 1116.21 924.3 1102.47 904.92 1102.47 889.37 1116.21"/><polygon class="cls-6" points="863.01 1116.21 882.39 1116.21 897.93 1102.47 878.55 1102.47 863.01 1116.21"/><polygon class="cls-6" points="834.88 1116.21 854.27 1116.21 869.81 1102.47 850.43 1102.47 834.88 1116.21"/><polygon class="cls-6" points="808.52 1116.21 827.9 1116.21 843.44 1102.47 824.06 1102.47 808.52 1116.21"/></g><g><polygon class="cls-6" points="782.65 1116.21 802.03 1116.21 817.58 1102.47 798.19 1102.47 782.65 1116.21"/><polygon class="cls-6" points="745.34 1116.21 775.93 1116.21 791.48 1102.47 760.89 1102.47 745.34 1116.21"/></g></g><g><g><polygon class="cls-6" points="802.13 1083.15 782.74 1083.15 767.2 1096.89 786.58 1096.89 802.13 1083.15"/><polygon class="cls-6" points="828.23 1083.15 808.84 1083.15 793.3 1096.89 812.68 1096.89 828.23 1083.15"/><polygon class="cls-6" points="854.59 1083.15 835.21 1083.15 819.67 1096.89 839.05 1096.89 854.59 1083.15"/><polygon class="cls-6" points="882.72 1083.15 863.34 1083.15 847.79 1096.89 867.18 1096.89 882.72 1083.15"/><polygon class="cls-6" points="909.09 1083.15 889.7 1083.15 874.16 1096.89 893.54 1096.89 909.09 1083.15"/></g><g><polygon class="cls-6" points="934.95 1083.15 915.57 1083.15 900.02 1096.89 919.41 1096.89 934.95 1083.15"/><polygon class="cls-6" points="961.05 1083.15 941.67 1083.15 926.12 1096.89 945.51 1096.89 961.05 1083.15"/><polygon class="cls-6" points="987.42 1083.15 968.04 1083.15 952.49 1096.89 971.87 1096.89 987.42 1083.15"/><polygon class="cls-6" points="1015.54 1083.15 996.16 1083.15 980.62 1096.89 1000 1096.89 1015.54 1083.15"/><polygon class="cls-6" points="1041.91 1083.15 1022.53 1083.15 1006.98 1096.89 1026.37 1096.89 1041.91 1083.15"/></g><g><polygon class="cls-6" points="1067.77 1083.15 1048.39 1083.15 1032.85 1096.89 1052.23 1096.89 1067.77 1083.15"/><polygon class="cls-6" points="1105.08 1083.15 1074.49 1083.15 1058.95 1096.89 1089.54 1096.89 1105.08 1083.15"/></g></g><g><g><polygon class="cls-6" points="822.39 1065.24 803.01 1065.24 787.47 1078.98 806.85 1078.98 822.39 1065.24"/><polygon class="cls-6" points="848.49 1065.24 829.11 1065.24 813.57 1078.98 832.95 1078.98 848.49 1065.24"/><polygon class="cls-6" points="874.86 1065.24 855.48 1065.24 839.93 1078.98 859.32 1078.98 874.86 1065.24"/><polygon class="cls-6" points="902.99 1065.24 883.6 1065.24 868.06 1078.98 887.44 1078.98 902.99 1065.24"/><polygon class="cls-6" points="929.35 1065.24 909.97 1065.24 894.43 1078.98 913.81 1078.98 929.35 1065.24"/></g><g><polygon class="cls-6" points="955.22 1065.24 935.83 1065.24 920.29 1078.98 939.67 1078.98 955.22 1065.24"/><polygon class="cls-6" points="981.32 1065.24 961.93 1065.24 946.39 1078.98 965.77 1078.98 981.32 1065.24"/><polygon class="cls-6" points="1007.68 1065.24 988.3 1065.24 972.76 1078.98 992.14 1078.98 1007.68 1065.24"/><polygon class="cls-6" points="1035.81 1065.24 1016.43 1065.24 1000.88 1078.98 1020.27 1078.98 1035.81 1065.24"/><polygon class="cls-6" points="1062.18 1065.24 1042.79 1065.24 1027.25 1078.98 1046.63 1078.98 1062.18 1065.24"/></g><g><polygon class="cls-6" points="1088.04 1065.24 1068.66 1065.24 1053.11 1078.98 1072.5 1078.98 1088.04 1065.24"/><polygon class="cls-6" points="1125.35 1065.24 1094.76 1065.24 1079.22 1078.98 1109.8 1078.98 1125.35 1065.24"/></g></g></g><polygon class="cls-2" points="1149.67 1058.21 1149.67 1096.89 1055.5 1141.46 1149.67 1058.21"/></g><path class="cls-11" d="M793.3,1056.23l-55.27,48.86-1.98,1.75-1.98,1.75-39.43,34.85h361.3l4.03-1.91,91.44-43.27,.25-.12v-41.91h-358.36Zm354.4,3.95v35.46l-86.88,41.11-5.77,2.73h-349.97l28.99-25.62,1.98-1.75,1.98-1.75,56.77-50.18h352.91Z"/><polygon class="cls-1" points="1236.96 1141.53 1398.72 1141.53 1303.23 1087.79 1236.96 1141.53"/><g><path class="cls-2" d="M1297.23,1116.2l-20.09,14.67c-14.75,10.77-38.46,13.9-52.96,6.99-7.25-3.46-10.83-8.77-10.75-14.56,.08-5.79,3.82-12.07,11.19-17.45l20.09-14.67c14.08-10.29,36.36-13.6,50.96-7.85,.68,.27,1.35,.55,2,.86s1.27,.63,1.85,.97c6.01,3.44,8.97,8.31,8.9,13.59-.08,5.79-3.82,12.07-11.19,17.45Z"/><path class="cls-9" d="M1297.23,1116.2l-.24,.18-52.52-25.02,.24-.18c14.08-10.29,36.36-13.6,50.96-7.85,.68,.27,1.35,.55,2,.86s1.27,.63,1.85,.97c6.01,3.44,8.97,8.31,8.9,13.59-.08,5.79-3.82,12.07-11.19,17.45Z"/><path class="cls-2" d="M1299.53,1085.16l-58.71,42.88-3.85-1.84,58.71-42.88c.68,.27,1.35,.55,2,.86s1.27,.63,1.85,.97Z"/></g><path class="cls-11" d="M1308.15,1090.56h0c-1.68-2.76-4.25-5.17-7.64-7.11-.62-.36-1.29-.71-1.99-1.04-.7-.33-1.41-.64-2.13-.93-4.89-1.92-10.8-2.94-17.1-2.94-12.92,0-26.29,4.13-35.75,11.04l-20.09,14.66c-7.65,5.59-11.91,12.35-12.01,19.03-.09,6.76,4.24,12.73,11.88,16.36,5.31,2.53,11.96,3.87,19.23,3.87,5.28,0,10.64-.69,15.77-1.98,7.43-1.87,14.38-4.97,19.98-9.06l20.09-14.66c7.65-5.59,11.91-12.35,12-19.03,.04-2.94-.73-5.71-2.25-8.21Zm-13.19,24.85l-18.98,13.86c-4.41,3.22-9.73,5.78-15.47,7.55-5.73,1.76-11.89,2.73-17.95,2.73-1.04,0-2.06-.03-3.06-.09-5.47-.31-10.43-1.47-14.47-3.39-6.28-2.99-9.7-7.51-9.62-12.75,.08-5.4,3.76-11.05,10.38-15.88l20.09-14.66c.21-.15,.42-.3,.63-.45,8.76-6.17,20.95-9.83,32.78-9.83,5.29,0,10.26,.77,14.45,2.23,.41,.14,.81,.29,1.2,.44,.64,.25,1.27,.52,1.87,.81,.32,.15,.64,.31,.95,.47,.27,.14,.52,.28,.78,.43,1.16,.66,2.21,1.39,3.12,2.17,3.16,2.7,4.83,6.04,4.78,9.67-.07,5.4-3.76,11.05-10.38,15.88l-1.11,.81Z"/><g><path class="cls-2" d="M736.04,914.74v370.2c0,1.86-.03,3.72-.09,5.56H303.64c-.02-.59-.04-1.19-.05-1.79-.02-.54-.02-1.07-.03-1.61,0-.82-.02-1.64-.02-2.46v-369.63c0-.82,0-1.64,.02-2.46,0-.66,.02-1.33,.04-1.99,0-.21,0-.42,.02-.63,.02-.76,.04-1.52,.07-2.27,.02-.55,.04-1.09,.07-1.64,.02-.66,.06-1.33,.1-1.99v-.08c.05-.8,.09-1.6,.16-2.4,0-.14,.02-.28,.02-.42,.06-.86,.13-1.72,.21-2.58,.06-.64,.11-1.28,.17-1.92,.3-3.16,.68-6.3,1.14-9.4,.09-.7,.21-1.39,.32-2.09,.13-.8,.25-1.6,.4-2.39,.17-1,.34-1.99,.53-2.97,.16-.85,.32-1.69,.49-2.54,.17-.87,.36-1.74,.55-2.61,.07-.35,.15-.7,.23-1.04,.28-1.28,.58-2.55,.89-3.82,.17-.7,.34-1.4,.52-2.1,.02-.08,.04-.16,.06-.24,.17-.68,.36-1.37,.54-2.05,.02-.09,.05-.2,.08-.29,.13-.49,.27-.99,.41-1.48,.11-.4,.22-.81,.34-1.22,.15-.52,.3-1.04,.46-1.55,.02-.09,.05-.18,.08-.27,.2-.69,.41-1.38,.62-2.06,.32-1.07,.66-2.13,1.01-3.18,.15-.44,.29-.88,.44-1.32,.75-2.21,1.53-4.4,2.36-6.57,.27-.72,.55-1.44,.84-2.16,.24-.6,.47-1.2,.72-1.8,.07-.2,.15-.39,.24-.58,.22-.55,.45-1.11,.69-1.66,.67-1.61,1.37-3.2,2.1-4.78,.27-.61,.55-1.21,.83-1.81,1.34-2.89,2.76-5.73,4.25-8.54,.31-.59,.62-1.16,.94-1.74,.32-.61,.66-1.22,1-1.83,1.53-2.76,3.13-5.47,4.8-8.14,.46-.73,.92-1.46,1.38-2.17,.43-.69,.89-1.37,1.33-2.04,1.05-1.59,2.13-3.16,3.23-4.71,.31-.44,.62-.89,.93-1.32,.61-.85,1.22-1.68,1.84-2.51,.4-.55,.81-1.08,1.22-1.62,1.99-2.63,4.06-5.2,6.19-7.72,.37-.44,.74-.89,1.12-1.32,.38-.44,.77-.89,1.15-1.33,.54-.61,1.08-1.22,1.62-1.82,3.83-4.26,7.85-8.35,12.06-12.25,.4-.37,.81-.74,1.22-1.12,.45-.42,.9-.82,1.35-1.23,.56-.5,1.12-1,1.68-1.49,.36-.32,.73-.63,1.09-.95,.41-.36,.83-.71,1.25-1.06,.58-.5,1.16-.98,1.75-1.46,.02-.02,.05-.04,.07-.06h0c32.85-27.1,74.96-43.36,120.86-43.36h52.25c29.97,0,58.33,6.94,83.54,19.3,1.64,.8,3.27,1.62,4.88,2.48,.74,.4,1.47,.78,2.21,1.18,.06,.04,.13,.08,.2,.11,.8,.43,1.6,.88,2.39,1.33,.79,.44,1.58,.89,2.36,1.35,1.57,.91,3.12,1.84,4.67,2.81,3.08,1.91,6.11,3.91,9.06,6,.74,.52,1.48,1.05,2.21,1.58,.73,.53,1.46,1.07,2.18,1.61,.02,.02,.03,.02,.05,.03,1.43,1.08,2.85,2.17,4.25,3.28,.7,.56,1.41,1.12,2.11,1.7,.51,.42,1.04,.85,1.55,1.28,.33,.28,.67,.56,1.01,.85,1.91,1.61,3.79,3.26,5.63,4.96,.66,.61,1.33,1.22,1.99,1.84,.66,.62,1.31,1.24,1.96,1.87,.65,.62,1.29,1.26,1.93,1.9,.62,.61,1.24,1.23,1.85,1.86,0,.02,.03,.05,.06,.06,.62,.65,1.25,1.3,1.87,1.95,.62,.66,1.23,1.31,1.85,1.98,1.23,1.33,2.44,2.67,3.61,4.03,.59,.68,1.18,1.37,1.76,2.06,1.76,2.06,3.46,4.18,5.12,6.32,1.12,1.42,2.21,2.87,3.27,4.33,1.08,1.46,2.12,2.93,3.14,4.43,1.04,1.49,2.04,3,3.02,4.52,1.49,2.29,2.92,4.6,4.29,6.95,1.39,2.35,2.72,4.73,3.99,7.14,5.56,10.46,10.16,21.5,13.7,33,.55,1.77,1.08,3.55,1.56,5.34,1.24,4.48,2.32,9.02,3.23,13.61,0,.03,0,.06,.02,.08,2.34,11.88,3.58,24.16,3.6,36.72Z"/><path class="cls-4" d="M372.8,436.23v109.03c0,91.88,74.49,166.37,166.37,166.37,33.28,0,64.29-9.77,90.29-26.6,9.89-6.4,19.06-13.82,27.35-22.13,6.35-6.35,12.2-13.22,17.45-20.53,11.82-16.4,20.72-35.03,25.95-55.16,3.48-13.4,5.33-27.46,5.33-41.95v-109.03c0-58.6-30.29-110.13-76.08-139.75-26-16.84-57.01-26.62-90.29-26.62-45.94,0-87.52,18.62-117.64,48.73-30.11,30.1-48.73,71.7-48.73,117.64Z"/><path class="cls-11" d="M539.17,269.86c87.07,35.27,90.29,166.37,90.29,166.37h76.08c0-91.89-74.48-166.37-166.37-166.37Z"/><path class="cls-4" d="M736.04,898.96v391.54h-125.28v-391.54c0-17.47,7.16-33.27,18.7-44.64,11.3-11.14,26.82-18.01,43.94-18.01s32.96,7.02,44.29,18.35c6.49,6.49,11.56,14.39,14.71,23.21,0,.02,.02,.04,.02,.06,.87,2.44,1.6,4.97,2.15,7.55,0,.04,.02,.08,.03,.11,.09,.42,.17,.83,.25,1.25,.09,.44,.17,.88,.25,1.31,.15,.82,.28,1.65,.38,2.48,.02,.16,.05,.32,.06,.49,.06,.46,.12,.93,.16,1.38,.05,.4,.08,.81,.11,1.22,.03,.31,.06,.62,.07,.93,.03,.41,.06,.81,.08,1.23,.02,.48,.04,.97,.05,1.46,.02,.54,.02,1.08,.02,1.61Z"/><g><g><path class="cls-2" d="M217.05,1106.63c0,67.58,54.78,122.36,122.36,122.36h189.47c67.58,0,122.36-54.78,122.36-122.36h0c0-67.58-54.78-122.36-122.36-122.36h-189.47c-67.58,0-122.36,54.78-122.36,122.36h0Z"/><path class="cls-11" d="M652.41,1092.37c-3.61-31.45-19-59.38-41.64-79.23-21.89-19.2-50.55-30.85-81.89-30.85h-189.47c-10.37,0-20.45,1.27-30.09,3.68-1.27,.32-2.54,.66-3.8,1.01-.06,.02-.11,.03-.16,.04-.61,.18-1.22,.36-1.82,.55-8.16,2.45-15.96,5.73-23.32,9.73-.02,.02-.05,.03-.07,.04-26.33,14.34-46.93,37.91-57.43,66.34-.97,2.63-1.86,5.31-2.65,8.03-.52,1.78-1.01,3.57-1.46,5.39-.59,2.45-1.12,4.94-1.57,7.43-.13,.67-.24,1.34-.35,2.02-.06,.4-.13,.78-.19,1.18-.02,.13-.04,.26-.06,.39-.28,1.92-.53,3.85-.74,5.81v.02c-.03,.35-.06,.7-.1,1.04-.02,.21-.04,.43-.06,.66-.02,.21-.04,.43-.06,.64,0,.09-.02,.19-.02,.22-.03,.39-.06,.77-.09,1.16-.03,.39-.06,.77-.08,1.15,0,.07,0,.14-.02,.21-.02,.38-.05,.77-.06,1.15-.02,.28-.02,.55-.04,.83-.02,.28-.02,.55-.03,.83-.02,.4-.03,.78-.04,1.18,0,.2-.02,.4-.02,.59,0,.28-.02,.55-.02,.8,0,.37-.02,.74-.02,1.12,0,.37,0,.74,0,1.12s0,.74,0,1.12c0,.36,0,.73,.02,1.08,0,.14,0,.28,0,.42,0,.13,0,.26,0,.39,0,.22,0,.44,.02,.66,0,.38,.02,.76,.04,1.14,0,.28,.02,.55,.03,.82,.03,.74,.06,1.47,.12,2.19,.05,.77,.1,1.54,.16,2.25,0,.1,.02,.2,.02,.29,.02,.26,.04,.51,.06,.78,.05,.53,.09,1.05,.15,1.55,0,.11,.02,.22,.03,.33,.05,.42,.09,.83,.14,1.25,.16,1.38,.34,2.77,.55,4.14v.02h0c.02,.17,.05,.34,.07,.5,.08,.51,.17,1.03,.25,1.54,.08,.51,.17,1.03,.26,1.53,.41,2.29,.88,4.55,1.42,6.79h0c.32,1.34,.65,2.65,1,3.95h0c11.26,41.26,43.29,74.03,84.1,86.34,.6,.19,1.21,.36,1.82,.55,.05,0,.1,.02,.16,.04,1.26,.36,2.52,.7,3.8,1.01,9.63,2.4,19.72,3.68,30.09,3.68h189.47c31.33,0,60-11.65,81.89-30.84,22.64-19.86,38.03-47.79,41.64-79.24,.54-4.68,.81-9.44,.81-14.26s-.28-9.58-.81-14.26Zm-41.64,102.43c-21.5,19.99-50.3,32.22-81.89,32.22h-189.47c-10.38,0-20.47-1.32-30.09-3.8-1.33-.34-2.64-.7-3.95-1.1-.57-.17-1.15-.34-1.72-.51-.03-.02-.06-.02-.09-.03-38.63-12.08-68.95-43.14-80.01-82.2,0,0,0,0,0,0-.36-1.31-.71-2.63-1.04-3.95,0,0,0,0,0,0-.61-2.47-1.14-4.97-1.59-7.49-.09-.49-.17-.99-.25-1.48-.11-.66-.21-1.33-.32-2-.06-.32-.1-.64-.14-.96v-.02c-.09-.62-.17-1.23-.25-1.85-.06-.47-.12-.95-.17-1.42-.05-.41-.09-.81-.13-1.23v-.02c-.04-.33-.07-.66-.1-1-.03-.34-.06-.66-.09-.96l-.04-.53c-.02-.33-.06-.66-.08-.99-.02-.36-.06-.73-.07-1.09-.02-.32-.04-.64-.06-.96-.02-.43-.05-.88-.06-1.31-.02-.38-.04-.77-.05-1.15,0-.12,0-.25-.02-.37-.02-.46-.02-.92-.03-1.38,0-.13,0-.26,0-.4-.02-.71-.02-1.43-.02-2.15,0-.36,0-.71,0-1.08,0-.37,0-.74,.02-1.11,0-.24,0-.48,.02-.74,0-.32,.02-.62,.02-.93,0-.15,0-.31,.02-.46,0-.37,.02-.75,.05-1.12,.03-.7,.06-1.41,.11-2.12,.02-.41,.05-.82,.08-1.25,.03-.35,.06-.7,.09-1.05v-.18c.03-.24,.06-.48,.07-.72,.02-.17,.03-.34,.05-.51,.07-.74,.14-1.46,.23-2.19,.02-.16,.03-.32,.06-.49,.03-.34,.08-.67,.12-1,.08-.62,.16-1.23,.25-1.85,.12-.88,.25-1.75,.4-2.62,.02-.13,.04-.25,.06-.37,.08-.49,.17-.99,.25-1.48,7.95-44.39,40.31-80.42,82.64-93.66,.61-.19,1.21-.37,1.82-.55,1.31-.4,2.63-.76,3.95-1.1,9.62-2.48,19.7-3.8,30.09-3.8h189.47c31.59,0,60.38,12.23,81.89,32.21,23.67,22,38.5,53.38,38.5,88.18s-14.83,66.17-38.5,88.17Z"/></g><path class="cls-11" d="M493.12,1114.52v175.98h-122.13v-175.98c0-4.63,6.83-8.83,17.89-11.86,11.05-3.03,26.31-4.91,43.17-4.91,33.72,0,61.06,7.51,61.06,16.77Z"/><path class="cls-11" d="M329.54,1106.63c0,31.61,25.62,57.24,57.24,57.24h94.73c31.61,0,57.24-25.63,57.24-57.24h0c0-31.61-25.63-57.24-57.24-57.24h-94.73c-31.61,0-57.24,25.62-57.24,57.24h0Z"/></g><path class="cls-2" d="M736.04,898.96v85.3h-125.28v-85.3c0-34.59,28.04-62.65,62.64-62.65,17.3,0,32.96,7.02,44.29,18.35,11.34,11.34,18.35,27,18.35,44.3Z"/><path class="cls-11" d="M372.8,436.23v483.24h256.66V296.48c-26-16.84-57.01-26.62-90.29-26.62-45.94,0-87.52,18.62-117.64,48.73-30.11,30.1-48.73,71.7-48.73,117.64Z"/></g><path class="cls-11" d="M738,897.31c0-.51-.02-1.03-.05-1.54-.02-.43-.06-.85-.08-1.22-.02-.34-.05-.68-.08-1.03-.03-.41-.07-.83-.11-1.19-.04-.47-.09-.96-.17-1.45-.02-.18-.04-.37-.06-.51-.12-.86-.25-1.71-.4-2.58l-.04-.21c-.07-.38-.13-.76-.21-1.11-.07-.36-.14-.73-.22-1.09l-.09-.45-.02-.03c-.58-2.58-1.3-5.1-2.14-7.45l-.02-.08c-.91-4.57-1.99-9.13-3.21-13.58-.56-2.01-1.08-3.77-1.57-5.39-3.54-11.48-8.19-22.69-13.84-33.34-1.23-2.33-2.59-4.75-4.04-7.22-1.35-2.3-2.81-4.67-4.33-7.02-1.09-1.68-2.09-3.17-3.05-4.57-1.14-1.65-2.17-3.11-3.17-4.47-.98-1.34-2.03-2.74-3.3-4.38-1.62-2.09-3.36-4.24-5.17-6.39-.59-.7-1.19-1.38-1.79-2.07-1.26-1.45-2.45-2.78-3.65-4.08-.62-.67-1.23-1.34-1.87-1.99-.54-.57-1.08-1.13-1.62-1.69l-.33-.36c-.55-.55-1.1-1.11-1.65-1.65l-.21-.21c-.65-.65-1.3-1.29-1.95-1.92-.66-.63-1.32-1.26-1.98-1.87-.66-.63-1.34-1.25-2.01-1.87-1.89-1.74-3.8-3.42-5.7-5.02l-1-.84c-.52-.44-1.05-.88-1.57-1.3-.71-.59-1.42-1.15-2.14-1.72-1.39-1.11-2.84-2.22-4.29-3.31l-.14-.1c-.7-.52-1.41-1.04-2.12-1.56-.74-.53-1.49-1.07-2.23-1.59-2.97-2.1-6.06-4.14-9.16-6.07-1.56-.97-3.15-1.92-4.71-2.84-.79-.46-1.59-.92-2.38-1.36-.81-.46-1.61-.91-2.42-1.35l-2.44-1.3c-1.22-.64-2.48-1.28-3.82-1.95v-56.88c9.62-6.31,18.62-13.63,26.76-21.79,6.45-6.45,12.39-13.44,17.66-20.78,12.19-16.9,21.02-35.68,26.26-55.81,3.58-13.78,5.39-28.06,5.39-42.45v-109.03c0-.83,0-1.65-.02-2.51,0-.84-.03-1.68-.06-2.53l-.06-1.55c-.05-1.18-.1-2.36-.17-3.53-.03-.56-.07-1.13-.11-1.69-.09-1.23-.18-2.45-.29-3.68l-.13-1.49c0-.09-.02-.18-.02-.24-.16-1.57-.33-3.04-.51-4.48l-.14-1.04c-.18-1.28-.36-2.55-.56-3.84l-.27-1.63c-.19-1.11-.39-2.21-.6-3.32l-.1-.54c-.06-.36-.13-.73-.21-1.07-.25-1.29-.53-2.57-.81-3.83-.07-.31-.13-.61-.21-.92,0-.02,0-.06-.02-.09l-.02-.07c-.13-.53-.25-1.04-.36-1.49-.05-.21-.09-.42-.15-.65l-.06-.25v-.02c-.03-.12-.06-.22-.09-.32-.14-.59-.29-1.15-.45-1.78l-.39-1.43c-.29-1.08-.6-2.16-.91-3.23-.15-.55-.32-1.08-.5-1.68-.31-1.04-.64-2.07-.98-3.13l-.49-1.49c-.52-1.57-1.03-3.01-1.53-4.38,0,0,0-.02,0-.02l-.28-.73c-.43-1.19-.91-2.4-1.43-3.73-.17-.41-.33-.82-.51-1.23l-.14-.35c-.39-.96-.8-1.91-1.21-2.89l-.71-1.61c-.46-1.02-.92-2.02-1.38-2.99l-1.08-2.29c-.17-.36-.34-.71-.51-1.07l-.21-.41c-.28-.56-.56-1.12-.88-1.72-.02-.04-.05-.09-.06-.13l-.19-.36c-.13-.23-.25-.46-.38-.71l-.32-.59c-.22-.43-.45-.86-.69-1.3l-.56-1.03c-.25-.44-.5-.89-.74-1.34l-.13-.22c-.49-.87-.99-1.73-1.53-2.65l-.88-1.48c-.34-.57-.69-1.13-1.04-1.71l-.08-.13c-.3-.47-.59-.94-.89-1.42-.08-.12-.16-.25-.25-.4-.07-.13-.15-.25-.2-.32-.17-.28-.34-.55-.51-.78l-.21-.33c-.13-.21-.28-.43-.42-.63l-.06-.18-.19-.2c-.37-.55-.75-1.11-1.15-1.71-.29-.43-.59-.86-.89-1.3-.61-.87-1.23-1.74-1.84-2.6-.29-.41-.59-.82-.89-1.23-.02-.04-.05-.07-.07-.1l-.17-.21c-.6-.81-1.23-1.65-1.83-2.42-.21-.28-.43-.57-.65-.86l-.46-.59c-.39-.48-.76-.96-1.15-1.45l-.19-.23c-.44-.56-.9-1.11-1.35-1.66l-.21-.25c-.08-.09-.15-.17-.22-.27l-1.57-1.87h-.02c-.35-.41-.7-.81-1.06-1.23l-.32-.36c-.22-.25-.44-.5-.64-.72-.75-.85-1.51-1.68-2.28-2.51l-2.37-2.52-3.27-3.3c-.1-.09-.2-.2-.34-.33-.57-.55-1.14-1.11-1.71-1.64-.17-.17-.36-.33-.57-.52-.47-.44-.93-.89-1.44-1.36l-2.4-2.15c-.99-.87-1.99-1.72-3-2.58l-.55-.47-1.26,1.53,1.15-1.61c-.59-.49-1.18-.97-1.77-1.46l-.13-.12c-.62-.5-1.25-1-1.88-1.49-.64-.5-1.28-1-1.93-1.49l-.14-.1c-.63-.49-1.27-.96-1.85-1.39-.05-.05-.1-.09-.13-.09l-.2-.14s-.1-.07-.15-.1c-.46-.34-.92-.67-1.38-1.01l-2.27-1.6c-.17-.13-.35-.25-.47-.33-.42-.28-.84-.57-1.24-.84-.68-.47-1.38-.93-2.08-1.4l-.18-.12c-.2-.13-.4-.25-.55-.35-.18-.12-.36-.24-.53-.34-.37-.25-.76-.48-1.14-.73l-1.19-.74c-.67-.43-1.36-.85-2.04-1.26l-.1-.06c-.14-.09-.28-.17-.43-.25l-.89-.51c-.37-.22-.75-.44-1.12-.66l-1.11-.63-.45-.26c-.09-.05-.17-.09-.21-.11-.13-.07-.25-.15-.35-.2l-.16-.09c-.14-.08-.28-.17-.43-.25l-.38-.21-.21-.11c-.13-.07-.25-.14-.33-.18-.27-.15-.55-.29-.82-.44l-.25-.13c-.12-.06-.25-.13-.36-.2-.36-.19-.71-.38-1.04-.55-.28-.16-.58-.31-.87-.45l-.25-.13c-.2-.1-.4-.21-.58-.3-.39-.2-.78-.4-1.12-.56-.42-.21-.84-.42-1.28-.63l-.77-.37c-.24-.12-.47-.23-.72-.34l-.53-.25c-.55-.25-1.09-.51-1.65-.77l-1.52-.69c-.68-.31-1.36-.6-2.06-.9l-1.26-.54c-.47-.21-.95-.4-1.42-.59l-.2-.09c-.06-.02-.13-.05-.2-.07-.3-.13-.59-.24-.89-.36l-.83-.33c-.24-.09-.47-.19-.7-.28l-.44-.21h-.09c-.59-.22-1.16-.44-1.77-.67l-1.28-.47c-.36-.14-.72-.27-1.08-.4-.14-.05-.28-.09-.37-.13-.41-.15-.83-.3-1.25-.44l-.78-.27c-.2-.06-.4-.13-.62-.2-.84-.28-1.68-.55-2.48-.81l-1.44-.44c-.85-.26-1.7-.51-2.55-.76-.34-.1-.68-.21-1.03-.3-1.12-.31-2.24-.61-3.36-.92l-.89-.22-.24-.12h-.23c-.72-.18-1.43-.35-2.16-.52l-6.18-1.34c-.42-.09-.85-.17-1.24-.24l-2.39-.43c-.93-.17-1.85-.32-2.78-.47-.36-.06-.72-.11-1.04-.16-.55-.09-1.11-.17-1.65-.25l-.36-.05c-.49-.07-.99-.13-1.48-.2l-.18-.02c-.21-.03-.43-.06-.64-.08h-.06c-1.04-.13-2.1-.26-3.16-.37l-.19-.02c-.31-.03-.62-.06-.94-.09-.17-.02-.34-.03-.51-.05-.85-.09-1.72-.16-2.61-.24-.24,0-.47-.03-.7-.06l-4.81-.28c-1-.05-2-.09-3.03-.12l-3.02-.06c-2.02-.02-4.06-.02-6.08,.03-.52,.02-1.04,.02-1.56,.05-42.79,1.42-83,18.86-113.35,49.22-23,22.99-38.53,51.48-45.35,82.5-.78,3.5-1.43,7.03-1.98,10.59-1.31,8.5-1.98,17.17-1.98,25.94v331.1c-.38,.31-.75,.62-1.11,.93-.43,.36-.85,.72-1.28,1.08l-.36,.32c-.25,.21-.5,.42-.73,.63-.57,.49-1.13,1-1.74,1.53-.45,.4-.9,.8-1.33,1.19-.41,.38-.82,.76-1.23,1.14-4.23,3.92-8.34,8.08-12.18,12.37-.54,.59-1.07,1.19-1.65,1.84l-.13,.15c-.35,.4-.7,.8-1.03,1.19-.36,.41-.72,.83-1.07,1.25l-.08,.09c-2.16,2.55-4.27,5.18-6.26,7.8-.41,.55-.82,1.09-1.22,1.63-.63,.83-1.26,1.68-1.88,2.56l-.25,.35c-.23,.32-.46,.66-.68,.96-1.08,1.53-2.18,3.14-3.27,4.77l-.15,.23c-.4,.61-.81,1.23-1.19,1.83-.47,.73-.93,1.46-1.4,2.2-1.65,2.64-3.28,5.41-4.86,8.23-.34,.62-.69,1.23-1,1.83-.32,.59-.64,1.17-.96,1.76-1.49,2.82-2.94,5.73-4.29,8.62-.29,.62-.58,1.23-.84,1.83-.72,1.55-1.43,3.18-2.12,4.82-.24,.56-.47,1.12-.69,1.67-.09,.21-.18,.42-.26,.64-.25,.59-.48,1.19-.71,1.79-.29,.73-.59,1.46-.85,2.18-.79,2.08-1.57,4.25-2.39,6.64l-.44,1.34c-.36,1.06-.7,2.14-1.02,3.2-.21,.68-.43,1.36-.62,2.05-.04,.11-.07,.21-.1,.33-.15,.51-.3,1.02-.45,1.53-.1,.35-.2,.71-.3,1.07l-.04,.15c-.12,.41-.24,.83-.35,1.25l-.06,.22c-.03,.11-.06,.23-.09,.34-.19,.69-.37,1.38-.53,2.02-.03,.1-.06,.21-.09,.32-.18,.7-.36,1.4-.52,2.07-.28,1.12-.56,2.35-.9,3.87-.08,.36-.17,.72-.23,1.06-.2,.88-.38,1.76-.55,2.63-.17,.85-.34,1.72-.49,2.56-.2,1-.37,2.01-.54,3-.14,.8-.27,1.61-.41,2.48-.11,.7-.22,1.39-.31,2.06-.47,3.12-.85,6.32-1.15,9.49-.06,.65-.12,1.3-.17,1.94-.08,.87-.14,1.74-.21,2.65v.11c-.02,.1-.02,.21-.02,.32-.06,.79-.11,1.58-.16,2.37v.13c-.04,.66-.08,1.32-.1,1.93-.03,.57-.06,1.13-.07,1.67-.03,.77-.06,1.54-.07,2.33,0,.22-.02,.43-.02,.61-.02,.66-.03,1.34-.04,2.02,0,.82-.02,1.64-.02,2.48v73.13c-1.15,.37-2.25,.74-3.32,1.12-.79,.27-1.56,.55-2.35,.85-1.49,.56-3.04,1.17-4.59,1.83-2.27,.95-4.53,1.98-6.74,3.06l-.22,.11c-.51,.26-1.03,.51-1.57,.79l-.39,.21c-.68,.36-1.37,.71-1.99,1.05-.06,.03-.12,.06-.18,.1l.02,.02,.96,1.69-1.03-1.65-.02-.02c-.7,.37-1.38,.75-2.06,1.14-.71,.4-1.42,.81-2.13,1.23-.49,.29-.97,.59-1.46,.89l-.63,.39c-.69,.43-1.37,.86-2.05,1.31-.63,.42-1.27,.84-1.9,1.26-.06,.04-.12,.08-.18,.13-.66,.44-1.31,.89-1.95,1.35-.65,.45-1.29,.92-1.95,1.4l-.17,.12c-.53,.4-1.06,.79-1.53,1.15-.09,.07-.18,.13-.27,.21l-.2,.15c-.59,.45-1.17,.91-1.74,1.36-.63,.51-1.27,1.03-1.89,1.54-.62,.52-1.25,1.04-1.85,1.57-1.52,1.31-3.05,2.7-4.54,4.12-.37,.35-.74,.7-1.08,1.04-.81,.78-1.57,1.55-2.25,2.25-.59,.6-1.16,1.21-1.68,1.76-.13,.13-.26,.27-.4,.41-.29,.31-.59,.63-.85,.93-.3,.33-.6,.66-.89,.99l-.09,.11c-.22,.25-.44,.5-.7,.79-.4,.45-.79,.92-1.18,1.38l-.09,.11c-.48,.57-.96,1.15-1.42,1.72-.47,.58-.94,1.16-1.41,1.75-.19,.25-.38,.48-.56,.73l-.15,.2c-.63,.81-1.3,1.7-2.04,2.72-.23,.31-.46,.62-.67,.92-.5,.69-.98,1.39-1.42,2.06-.36,.51-.7,1.01-1.02,1.49-.3,.45-.6,.91-.89,1.37l-.15,.24c-.17,.27-.34,.53-.47,.75-.34,.54-.68,1.08-1.01,1.62l-.12,.2c-.42,.68-.84,1.38-1.23,2.07-.36,.6-.7,1.21-1.04,1.82-.49,.87-.96,1.75-1.44,2.65-.35,.66-.69,1.33-1.02,1.99-.33,.65-.65,1.29-.96,1.95-.11,.22-.21,.45-.31,.65-.3,.61-.59,1.23-.86,1.84-.35,.74-.67,1.5-1.01,2.28-.26,.61-.52,1.22-.77,1.84-.11,.25-.21,.5-.29,.7-.28,.67-.55,1.34-.8,2.01-.21,.55-.42,1.09-.62,1.65-.04,.1-.07,.2-.11,.3l-.05,.13c-.04,.1-.08,.21-.09,.26-.25,.69-.5,1.39-.74,2.1-.03,.09-.06,.19-.13,.35-.24,.71-.47,1.44-.69,2.12-.03,.09-.06,.18-.09,.3l-.17,.52c-.15,.49-.3,.97-.45,1.49l-.06,.21c-.03,.1-.06,.21-.09,.32-.2,.69-.4,1.39-.59,2.09l-.03,.1c-.02,.07-.04,.14-.05,.17-.2,.71-.38,1.43-.55,2.14-.08,.29-.15,.59-.21,.88-.17,.66-.33,1.33-.48,2-.13,.57-.25,1.15-.38,1.72-.25,1.21-.49,2.45-.71,3.72-.13,.67-.24,1.34-.35,2.02-.06,.4-.13,.78-.19,1.18-.02,.13-.04,.26-.06,.39l-.02,.07c-.06,.35-.1,.7-.16,1.06-.09,.62-.17,1.25-.25,1.87l-.02,.16c-.09,.65-.16,1.31-.23,1.95l-.07,.69v.02c-.03,.35-.06,.7-.1,1.04-.02,.21-.04,.43-.06,.66-.02,.15-.03,.3-.05,.46v.18c-.02,.09-.02,.19-.02,.22-.03,.39-.06,.77-.09,1.16-.03,.39-.06,.77-.08,1.15,0,.07,0,.14-.02,.21-.02,.38-.05,.77-.06,1.15-.02,.28-.02,.55-.04,.83-.02,.28-.02,.55-.03,.83-.02,.4-.03,.78-.04,1.18,0,.2-.02,.4-.02,.59,0,.28-.02,.55-.02,.8,0,.37-.02,.74-.02,1.12,0,.37,0,.74,0,1.12s0,.74,0,1.12c0,.36,0,.73,.02,1.08,0,.14,0,.28,0,.42,0,.13,0,.26,0,.39,0,.22,0,.44,.02,.66,0,.38,.02,.76,.04,1.14,0,.28,.02,.55,.03,.82,.03,.74,.06,1.47,.12,2.19,.05,.77,.1,1.54,.16,2.25,0,.1,.02,.2,.02,.29l.02,.25,.05,.52c.05,.53,.09,1.05,.15,1.55,0,.11,.02,.22,.03,.33l.04,.4c.03,.28,.06,.57,.1,.85,.04,.37,.08,.74,.13,1.11l.02,.17c.08,.61,.16,1.23,.25,1.84,.06,.35,.1,.7,.16,1v.02h0v.09c.03,.13,.05,.27,.07,.4,.06,.4,.12,.78,.18,1.15,.02,.13,.04,.26,.07,.39,.08,.51,.17,1.03,.26,1.53,.23,1.31,.47,2.59,.74,3.84,.13,.58,.25,1.15,.38,1.72,.09,.41,.19,.82,.28,1.23,0,0,0,0,0,0,.13,.55,.25,1.08,.39,1.61,.07,.3,.15,.59,.23,.88,.11,.44,.22,.88,.33,1.27,.02,.06,.03,.13,.05,.2h0v.02l.03,.1c.21,.81,.45,1.61,.68,2.4,.17,.58,.35,1.15,.52,1.72l.24,.75c.23,.73,.47,1.45,.73,2.22,.04,.1,.07,.2,.1,.29,.21,.62,.43,1.24,.66,1.87l.06,.17c.03,.09,.06,.18,.09,.28l.07,.19c.24,.65,.47,1.29,.72,1.92,.26,.68,.53,1.35,.78,1.98,.09,.25,.2,.5,.32,.75,.25,.62,.51,1.23,.77,1.86,.33,.76,.66,1.51,1,2.25l.12,.27c.25,.53,.49,1.06,.74,1.57,.09,.21,.19,.42,.29,.62,.69,1.42,1.34,2.71,2.01,3.98,.47,.89,.95,1.77,1.44,2.65l.2,.34c.28,.5,.55,.99,.84,1.47,.4,.69,.81,1.38,1.23,2.06l.14,.24,.02,.02c.32,.52,.65,1.04,.98,1.57l.46,.72c.34,.53,.69,1.07,1.04,1.6l.05,.07c.42,.62,.84,1.25,1.27,1.87,.06,.08,.1,.15,.14,.2,.4,.59,.81,1.18,1.24,1.76,.06,.08,.11,.16,.17,.23,.4,.55,.8,1.11,1.23,1.68l.13,.18c.44,.59,.89,1.17,1.29,1.69,.09,.11,.17,.21,.25,.32l.32,.4c.38,.47,.76,.94,1.14,1.42,.98,1.2,2.02,2.44,3.1,3.66,.6,.69,1.21,1.36,1.85,2.06l.51,.55c.26,.28,.52,.55,.79,.83,.12,.13,.25,.27,.37,.4,.5,.53,1,1.05,1.51,1.55,.47,.47,.94,.95,1.42,1.42l.06,.06c.71,.7,1.44,1.38,2.17,2.08,.54,.49,1.08,.99,1.62,1.47,.61,.55,1.23,1.09,1.83,1.62,1.16,1,2.42,2.05,3.75,3.12,.62,.49,1.26,.99,1.9,1.49l.54,.41h.02c1.12,.85,2.25,1.68,3.41,2.49,.66,.47,1.31,.93,1.98,1.38l.13,.09c.63,.42,1.27,.85,1.91,1.27,.68,.44,1.36,.87,2.07,1.31l.51,.32c.51,.32,1.04,.63,1.57,.95,.7,.42,1.41,.83,2.12,1.23,.68,.38,1.37,.77,2.06,1.14l.2,.11c.68,.37,1.37,.73,2.05,1.08,2.89,1.49,5.89,2.89,8.93,4.18,1.53,.64,3.08,1.26,4.6,1.82,.78,.29,1.55,.58,2.33,.85,1.08,.37,2.18,.74,3.33,1.12v59.55c0,.83,0,1.65,.02,2.49,0,.47,.02,.93,.02,1.38,0,.07,0,.14,0,.21,0,.59,.02,1.18,.05,1.76v.08l.08,1.9h436.27v-393.52c0-.55,0-1.12-.02-1.65Zm-456.02,103.49c.06-.03,.12-.06,.25-.13,.66-.36,1.32-.71,2-1.06l.38-.2c.5-.25,1-.51,1.52-.76l.21-.11c2.13-1.04,4.32-2.04,6.51-2.96,1.5-.63,3.01-1.23,4.45-1.77,.75-.28,1.5-.55,2.27-.81,1.27-.44,2.59-.89,3.99-1.32,.19-.06,.39-.12,.59-.18l1.23-.38,.16-.05v-76.05c0-.81,0-1.62,.02-2.44,0-.66,.02-1.31,.04-2.01,0-.17,0-.34,.02-.59,.02-.74,.04-1.49,.07-2.25,.02-.52,.04-1.05,.07-1.62,.02-.65,.06-1.3,.1-1.94v-.14c.05-.76,.09-1.53,.15-2.29v-.16s.02-.09,.02-.13v-.15c.07-.85,.13-1.69,.21-2.55,.06-.63,.11-1.27,.17-1.91,.29-3.12,.67-6.25,1.13-9.32,.09-.66,.2-1.33,.31-2.06,.13-.78,.25-1.56,.4-2.36,.16-.98,.33-1.95,.52-2.93,.15-.84,.31-1.67,.48-2.51,.17-.85,.36-1.72,.55-2.6,.07-.33,.14-.66,.22-1.01,.28-1.27,.57-2.51,.89-3.79,.17-.68,.33-1.37,.51-2.06l.06-.25c.17-.67,.36-1.35,.55-2.1l.13-.47c.11-.4,.22-.8,.34-1.22l.05-.18c.09-.33,.19-.67,.28-1.01,.15-.51,.29-1.01,.45-1.52l.09-.3c.2-.67,.4-1.34,.62-2.02,.32-1.05,.66-2.1,1-3.12l.44-1.31c.79-2.34,1.56-4.47,2.34-6.52,.27-.71,.55-1.42,.83-2.13,.23-.59,.47-1.19,.7-1.79l.03-.07c.06-.14,.11-.28,.17-.43l.04-.09c.21-.54,.44-1.08,.68-1.63,.67-1.61,1.37-3.2,2.08-4.75,.26-.59,.53-1.18,.81-1.77,1.32-2.85,2.74-5.69,4.2-8.45,.31-.58,.62-1.15,.94-1.74,.32-.59,.65-1.19,.99-1.8,1.53-2.75,3.12-5.47,4.75-8.04,.45-.72,.9-1.44,1.38-2.17,.38-.59,.77-1.19,1.16-1.77l.15-.23c1.05-1.6,2.13-3.16,3.2-4.67,.22-.32,.45-.63,.67-.95l.25-.35c.6-.83,1.19-1.66,1.83-2.48,.4-.54,.79-1.07,1.2-1.61,1.95-2.57,4.01-5.14,6.13-7.64l.08-.09c.34-.4,.68-.81,1.04-1.21,.33-.4,.67-.78,1.01-1.17l.17-.18c.51-.59,1.04-1.18,1.57-1.76,3.77-4.2,7.79-8.28,11.93-12.12,.4-.37,.79-.74,1.22-1.12,.44-.4,.86-.78,1.32-1.19,.55-.5,1.12-.99,1.68-1.49,.24-.21,.47-.41,.7-.61l.37-.32c.4-.35,.81-.7,1.25-1.06,.17-.15,.35-.3,.53-.45,.39-.32,.77-.65,1.19-.98l.79-.52V436.23c0-43.93,17.1-85.2,48.15-116.24,30-30.01,69.85-47.09,112.2-48.11,.51-.02,1.04-.02,1.57-.03,1.47-.02,2.95-.02,4.35,0l2.85,.06h.14c.99,.03,1.96,.07,2.94,.12l4.57,.26,.14,.02c.25,.02,.48,.05,.69,.06,1,.09,2.02,.17,3.05,.28,.32,.03,.64,.06,.96,.09l.23,.02c.45,.05,.9,.09,1.35,.15,.55,.06,1.1,.13,1.65,.19l.08,.02c.17,.02,.34,.03,.53,.06l.22,.02c.52,.07,1.04,.14,1.57,.21l.21,.03c.54,.07,1.08,.15,1.64,.25,.33,.04,.66,.09,1,.15,.91,.14,1.82,.3,2.72,.45l2.36,.43c.4,.07,.8,.15,1.19,.22l6.03,1.31c.73,.17,1.43,.35,2.15,.52l.23,.12h.23l1,.27h.06c1.04,.28,2.06,.55,3.08,.84,.32,.09,.63,.18,1.01,.3,.82,.23,1.63,.47,2.47,.73l1.36,.42c.83,.27,1.65,.53,2.46,.8,.23,.08,.45,.16,.67,.23l.74,.25c.39,.13,.78,.27,1.2,.42,.09,.03,.17,.06,.25,.09l.08,.03c.35,.13,.7,.25,1.05,.38l.62,.23c.23,.09,.46,.17,.66,.25,.69,.26,1.38,.52,2.06,.78l.34,.13h0c.17,.06,.33,.13,.5,.2l.85,.33c.3,.13,.61,.25,.92,.38l.25,.09c.47,.19,.96,.39,1.44,.6l1.27,.55c.67,.28,1.34,.58,1.99,.87l1.5,.68c.53,.25,1.06,.5,1.59,.74l.56,.26c.22,.11,.45,.21,.65,.31l.81,.39c.4,.19,.78,.4,1.22,.62,.36,.17,.72,.36,1.09,.55,.19,.09,.36,.18,.54,.27l.28,.14c.26,.14,.52,.28,.84,.44,.44,.23,.89,.46,1.35,.71l.29,.16c.25,.13,.51,.27,.81,.43l.31,.17s.08,.04,.12,.06c.08,.05,.16,.09,.22,.12l.25,.14c.12,.06,.24,.13,.36,.2l.22,.13c.09,.06,.19,.1,.34,.19l.13,.08c.09,.05,.17,.09,.21,.11l.25,.14,1.13,.64c.28,.17,.56,.33,.85,.5,.07,.04,.15,.09,.22,.13l.92,.54c.11,.06,.22,.13,.34,.21l.13,.07c.66,.4,1.32,.8,1.99,1.22l1.19,.74c.36,.22,.71,.45,1.09,.7,.16,.1,.32,.21,.53,.34,.17,.11,.36,.23,.54,.35l.17,.11c.11,.07,.22,.14,.33,.22,.57,.37,1.12,.75,1.68,1.13,.4,.28,.81,.55,1.27,.86,.13,.09,.27,.18,.41,.28l2.21,1.56c.47,.34,.94,.68,1.41,1.02l.15,.1s.09,.06,.13,.09c.02,.02,.05,.04,.08,.06,.6,.44,1.2,.89,1.8,1.35l.17,.13c.65,.49,1.29,.99,1.93,1.49,.59,.47,1.19,.93,1.77,1.41,.08,.07,.16,.14,.25,.2,.56,.46,1.12,.92,1.63,1.34l.69,.59c.99,.83,1.95,1.67,2.92,2.51l2.27,2.04,.55,.57h.06c.28,.27,.57,.53,.85,.8l.07,.07c.17,.15,.32,.3,.49,.46,.57,.53,1.13,1.07,1.69,1.62,.13,.12,.25,.25,.33,.32l5.5,5.67c.74,.8,1.49,1.61,2.24,2.46,.21,.23,.41,.46,.62,.7l.32,.36c.27,.32,.55,.63,.81,.94v.51l.74,.36,.94,1.12c.11,.14,.23,.28,.35,.41l.2,.25c.43,.51,.85,1.02,1.27,1.54l.19,.24c.38,.47,.75,.95,1.13,1.42l.43,.55c.21,.27,.4,.53,.62,.83,.61,.79,1.22,1.59,1.79,2.36l.11,.14s.03,.05,.06,.08l.06,.07c.3,.41,.59,.82,.89,1.24,.62,.85,1.22,1.7,1.81,2.56,.28,.4,.57,.81,.85,1.23l.05,.07c.36,.52,.71,1.04,1.06,1.57l.09,.24,.2,.2c.13,.2,.27,.4,.4,.6l.25,.37c.15,.23,.3,.45,.47,.74,.05,.07,.09,.15,.13,.2,.09,.16,.2,.32,.32,.52,.29,.46,.59,.91,.87,1.37l.07,.12c.34,.55,.67,1.11,1.02,1.68l.41,.67c.09,.16,.18,.32,.28,.48l.18,.32c.49,.85,.98,1.68,1.46,2.55l.13,.22c.24,.42,.48,.85,.72,1.29l.56,1.03c.22,.41,.44,.83,.67,1.26l.3,.56c.13,.25,.26,.51,.4,.76l.1,.19c.05,.11,.1,.21,.14,.28,.28,.55,.55,1.08,.82,1.63l.21,.42c.17,.33,.33,.66,.51,1.04l.33,.66c.04,.09,.09,.19,.13,.26l.59,1.27c.46,.97,.92,1.96,1.35,2.94l.7,1.58c.4,.93,.8,1.87,1.19,2.82l.14,.35c.16,.4,.32,.79,.48,1.19,.52,1.29,.97,2.48,1.41,3.65l.21,.56h0l.04,.12c.5,1.35,.99,2.77,1.51,4.31l.48,1.48c.33,1.01,.65,2.02,.96,3.08,.17,.53,.32,1.06,.47,1.6,.31,1.04,.6,2.1,.89,3.16l.39,1.45c.15,.55,.29,1.11,.43,1.7,.04,.16,.08,.31,.12,.47l.06,.25,.02,.04c.02,.11,.06,.24,.09,.4,.13,.48,.24,.96,.35,1.46,0,.04,.02,.08,.03,.11l.02,.08c.06,.28,.13,.56,.19,.88,.28,1.25,.55,2.5,.8,3.77,.07,.33,.13,.67,.2,1l.1,.55c.21,1.08,.4,2.15,.58,3.22l.27,1.61c.2,1.24,.38,2.5,.55,3.76l.13,1c.18,1.4,.35,2.82,.51,4.39l.15,1.66c.11,1.19,.21,2.39,.29,3.6,.04,.55,.07,1.08,.09,1.64,.07,1.15,.13,2.31,.17,3.44l.06,1.53c.02,.81,.05,1.63,.06,2.42v.09c.02,.8,.02,1.6,.02,2.4v109.03c0,12.61-1.42,25.13-4.25,37.29-.31,1.39-.66,2.78-1.01,4.17-.04,.17-.09,.33-.13,.5-5.12,19.46-13.71,37.64-25.51,54,0,.02-.02,.02-.03,.04-5.14,7.15-10.93,13.96-17.22,20.25-7.9,7.91-16.62,15.02-25.94,21.16-.36,.24-.72,.47-1.08,.7l-.9,.59v61.48l1.11,.54c.29,.14,.59,.29,.87,.44,1.4,.7,2.7,1.36,3.95,2.01l2.16,1.15c.09,.06,.19,.11,.23,.13,.79,.43,1.58,.86,2.37,1.31,.78,.43,1.56,.89,2.33,1.34,1.54,.9,3.09,1.83,4.62,2.78,3.04,1.9,6.06,3.89,8.97,5.95,.74,.51,1.47,1.04,2.19,1.56,.7,.51,1.4,1.03,2.1,1.54l.12,.11,.11,.06c1.38,1.04,2.76,2.1,4.09,3.16,.7,.56,1.39,1.12,2.1,1.69,.51,.41,1.02,.83,1.53,1.27l1,.84c1.84,1.56,3.72,3.2,5.57,4.9,.66,.6,1.31,1.2,1.97,1.83,.65,.61,1.3,1.23,1.95,1.85,.64,.62,1.27,1.24,1.9,1.87l.21,.21c.51,.51,1.02,1.02,1.53,1.54,.06,.08,.13,.15,.21,.22,.6,.62,1.19,1.24,1.8,1.87,.62,.66,1.23,1.3,1.83,1.96,1.18,1.27,2.35,2.58,3.58,3.99,.59,.68,1.16,1.36,1.74,2.03,1.78,2.1,3.48,4.22,5.06,6.26,1.25,1.61,2.28,2.97,3.23,4.29,.97,1.34,1.99,2.78,3.11,4.39,.94,1.37,1.92,2.84,2.99,4.47,1.48,2.31,2.91,4.63,4.24,6.88,1.42,2.42,2.74,4.79,3.95,7.07,5.53,10.42,10.09,21.41,13.56,32.65,.49,1.59,1,3.32,1.54,5.28,.36,1.32,.72,2.66,1.04,4h0c.78,3.11,1.49,6.26,2.12,9.41,.02,.12,.05,.22,.07,.29l.04,.13c.83,2.31,1.53,4.75,2.06,7.18,0,.07,.03,.16,.06,.25l.02,.08c.07,.34,.14,.67,.21,1.04,.07,.36,.13,.71,.2,1.06l.04,.21c.13,.79,.26,1.59,.37,2.44,.02,.13,.04,.25,.05,.39v.08c.07,.43,.12,.86,.17,1.34,.04,.36,.07,.74,.09,1.09v.1c.04,.27,.06,.55,.08,.87,.03,.4,.05,.79,.07,1.17,.02,.47,.04,.93,.05,1.42,.02,.52,.02,1.04,.02,1.56v389.57H305.57c0-.48-.02-.96-.02-1.43,0-.82-.02-1.63-.02-2.44v-62.46l-.16-.05-1.23-.38c-.17-.05-.32-.1-.49-.16l-.09-.02c-1.38-.43-2.73-.88-4-1.32-.76-.27-1.51-.54-2.25-.81-1.46-.55-2.97-1.15-4.45-1.76-2.93-1.23-5.84-2.59-8.64-4.04-.65-.33-1.3-.68-1.95-1.03-.09-.06-.18-.1-.22-.12-.67-.37-1.34-.74-2.02-1.12-.69-.39-1.36-.78-2.04-1.19-.51-.3-1.01-.61-1.52-.92l-.5-.31c-.67-.42-1.34-.85-2-1.27-.61-.4-1.22-.8-1.82-1.2-.03-.02-.06-.04-.06-.04l-.09-.06c-.65-.44-1.3-.89-1.94-1.34-1.28-.9-2.56-1.85-3.81-2.81l-.26-.19c-.54-.42-1.07-.84-1.59-1.26-1.29-1.02-2.51-2.03-3.63-3.01-.6-.51-1.19-1.03-1.77-1.56-.53-.47-1.06-.96-1.57-1.44-.71-.66-1.41-1.31-2.1-1.99l-.06-.07c-.46-.45-.93-.9-1.38-1.38-.5-.5-.99-1-1.48-1.52l-.09-.09c-.06-.06-.11-.12-.17-.17l-.07-.09c-.26-.27-.52-.55-.78-.82l-.51-.54c-.59-.64-1.18-1.3-1.76-1.96-1.05-1.19-2.06-2.4-3.01-3.55-.37-.47-.74-.93-1.12-1.39l-.3-.38c-.05-.06-.1-.13-.2-.26-.43-.55-.85-1.1-1.27-1.66-.06-.07-.12-.15-.18-.23-.4-.53-.78-1.07-1.18-1.61l-.13-.19c-.42-.58-.82-1.15-1.24-1.76l-.1-.15c-.43-.61-.83-1.22-1.27-1.87-.34-.52-.68-1.04-1.01-1.56l-.45-.71c-.36-.56-.7-1.12-1.04-1.68l-.13-.25-.06-.06c-.36-.59-.7-1.19-1.05-1.78-.28-.47-.55-.95-.81-1.42l-.19-.33c-.47-.85-.93-1.7-1.39-2.56-.64-1.22-1.28-2.48-1.95-3.84-.09-.18-.17-.38-.28-.62-.25-.5-.47-1-.7-1.5l-.13-.27c-.33-.72-.66-1.46-.97-2.18-.25-.59-.51-1.18-.74-1.77l-.03-.08c-.09-.2-.17-.39-.26-.63-.26-.64-.51-1.28-.77-1.94-.24-.62-.47-1.23-.68-1.8-.03-.09-.06-.18-.09-.27l-.15-.42c-.21-.59-.43-1.18-.62-1.77l-.13-.38c-.24-.68-.46-1.36-.68-2.08l-.23-.73c-.17-.55-.34-1.1-.51-1.66-.14-.47-.28-.94-.41-1.41h0c-.08-.3-.16-.59-.24-.88-.02-.08-.04-.15-.06-.23l-.03-.11c-.11-.4-.21-.81-.32-1.21l-.02-.1c-.07-.23-.13-.47-.2-.75-.06-.22-.11-.44-.17-.67h0c-.17-.7-.34-1.4-.5-2.1-.13-.55-.25-1.1-.36-1.67-.25-1.2-.5-2.44-.72-3.73-.09-.49-.17-.98-.25-1.48-.02-.13-.05-.26-.07-.4-.09-.49-.16-.99-.23-1.48l-.02-.13c-.06-.32-.1-.64-.14-.96v-.02c-.08-.55-.16-1.1-.23-1.68l-.02-.17c-.06-.47-.12-.95-.17-1.42-.02-.19-.05-.38-.07-.56l-.06-.66v-.02c-.04-.34-.07-.67-.1-1-.03-.34-.06-.66-.09-.96l-.04-.53c-.03-.33-.06-.66-.08-.99-.02-.36-.06-.73-.07-1.09,0-.06-.02-.11-.02-.17-.02-.27-.03-.53-.04-.8-.02-.43-.05-.87-.06-1.31-.02-.38-.03-.76-.05-1.15,0-.12,0-.25-.02-.37-.02-.46-.02-.92-.03-1.38,0-.13,0-.26,0-.4-.02-.72-.02-1.44-.02-2.15,0-.36,0-.71,0-1.08,0-.36,0-.74,.02-1.11,0-.24,0-.48,.02-.74,0-.31,.02-.62,.02-.93,0-.15,0-.31,.02-.46,.02-.37,.03-.75,.05-1.12,.03-.7,.06-1.41,.11-2.12,.02-.41,.05-.82,.08-1.25,.02-.34,.06-.69,.09-1.05v-.18l.02-.21c.02-.17,.03-.34,.05-.51,.02-.17,.03-.34,.05-.51,.03-.35,.06-.7,.1-1.06l.06-.62c.02-.17,.04-.34,.06-.51,.02-.17,.03-.33,.06-.49,.03-.34,.08-.67,.12-1l.02-.17c.07-.56,.14-1.11,.23-1.68v-.03c.04-.32,.09-.64,.14-1l.02-.11c.07-.48,.14-.97,.24-1.48,.02-.13,.04-.25,.06-.37,.08-.5,.17-1,.25-1.48,.22-1.27,.47-2.52,.72-3.73,.12-.56,.24-1.11,.36-1.66,.21-.93,.43-1.87,.67-2.79,.17-.69,.35-1.38,.53-2.06l.03-.11c.02-.07,.04-.14,.05-.18,.21-.77,.43-1.55,.66-2.3l.08-.26c.13-.47,.28-.93,.43-1.44l.24-.74c.21-.69,.43-1.38,.65-2,.06-.15,.1-.29,.15-.44,.22-.67,.47-1.34,.72-2.04l.13-.37c.22-.62,.46-1.23,.7-1.86,.25-.65,.5-1.29,.78-1.98,.07-.2,.15-.39,.24-.59l.03-.08c.25-.6,.5-1.19,.75-1.78,.32-.73,.63-1.46,.97-2.18,.27-.59,.54-1.19,.84-1.8,.09-.21,.2-.43,.29-.62,.3-.63,.6-1.24,.93-1.87,.33-.65,.66-1.31,1-1.94,.46-.86,.92-1.71,1.4-2.57,.32-.59,.66-1.16,1-1.76,.35-.61,.7-1.2,1.05-1.79l.16-.25c.35-.58,.7-1.15,1.09-1.76,.13-.21,.26-.43,.42-.66l.18-.28c.27-.42,.55-.85,.85-1.31,.32-.47,.63-.94,.99-1.45,.44-.67,.91-1.34,1.38-1.99,.21-.29,.42-.59,.64-.89,.65-.89,1.3-1.76,1.98-2.63l.16-.21c.17-.23,.35-.46,.53-.69,.45-.57,.9-1.14,1.38-1.71,.45-.56,.9-1.11,1.36-1.65l.09-.09c.39-.45,.78-.91,1.19-1.39,.2-.23,.4-.46,.62-.7l.1-.12c.28-.32,.57-.63,.87-.96,.28-.3,.55-.61,.84-.92,.09-.09,.18-.19,.32-.33,.54-.59,1.09-1.16,1.68-1.76,.66-.7,1.39-1.42,2.18-2.19,.33-.33,.67-.66,1.03-.99,1.45-1.39,2.93-2.74,4.41-4,.59-.51,1.19-1.02,1.8-1.53,.59-.5,1.21-1,1.83-1.49,.55-.44,1.11-.89,1.63-1.29,.09-.06,.17-.13,.25-.18l.22-.17c.51-.4,1.02-.78,1.54-1.15l.06-.05-1.18-1.59,1.27,1.52c.62-.44,1.23-.89,1.87-1.34,.64-.46,1.29-.9,1.94-1.34l.1-.07c.62-.42,1.24-.83,1.87-1.23,.66-.43,1.33-.85,1.98-1.26l.62-.38c.47-.29,.95-.58,1.42-.86,.69-.4,1.36-.8,2.07-1.19,.66-.38,1.32-.75,1.93-1.08Z"/><path class="cls-11" d="M1491.52,982.28v157.07h309.32v-157.07h-309.32Zm3.95,3.95h301.41v149.16h-301.41v-149.16Z"/><rect class="cls-6" x="1578.12" y="1049.95" width="136.12" height="21.74"/><path class="cls-11" d="M1491.52,1135.41v157.07h309.32v-157.07h-309.32Zm3.95,3.95h301.41v149.16h-301.41v-149.16Z"/><rect class="cls-6" x="1578.12" y="1203.07" width="136.12" height="21.74"/><g><polygon class="cls-2" points="124.01 459.81 230.06 622.56 263.54 622.56 124.01 459.81"/><polygon class="cls-2" points="124.01 46.53 230.06 209.28 263.54 209.28 124.01 46.53"/><polygon class="cls-2" points="114.28 293.97 270.49 541.18 319.81 541.18 114.28 293.97"/></g><path class="cls-11" d="M1562.58,712.09l.23,1.98,.23,1.98,5.84,50.56,.23,1.98,.23,1.98,16.97,146.94,.23,1.98,.23,1.98h115.03l.46-3.95,16.96-146.94,.23-1.98,.23-1.98,5.84-50.56,.23-1.98,.23-1.98h-163.4Zm153.12,54.52l-.46,3.95-16.97,146.94h-107.98l-16.98-146.94-.22-1.98-.23-1.98-5.84-50.56h154.52l-5.84,50.56Z"/><rect class="cls-2" x="1550.81" y="714.06" width="190.75" height="54.52"/><path class="cls-11" d="M1548.83,712.09v58.47h194.7v-58.47h-194.7Zm190.75,54.52h-186.79v-50.56h186.79v50.56Z"/><rect class="cls-11" x="1644.2" y="512.15" width="3.95" height="199.48"/><g><path class="cls-11" d="M1648.18,679.92l-.02-.85c-.03-1.51-.1-3.02-.21-4.52-.29-4.56-.89-9.06-1.77-13.48-.55-2.77-1.2-5.51-1.98-8.22-4.81-16.95-13.88-32.49-26.63-45.24-19.09-19.09-44.47-29.95-71.46-30.58l-2.07-.05,.06,2.07c.62,26.98,11.48,52.36,30.58,71.46,18.63,18.63,43.23,29.41,69.49,30.5,.02,0,.03,0,.05,0,.64,.03,1.28,.05,1.93,.06h.09l1.94,.05h.05v-.12l-.03-1.11Zm-70.71-32.2c-17.87-17.87-28.25-41.48-29.35-66.66,25.19,1.1,48.79,11.47,66.67,29.35,17.17,17.17,27.42,39.63,29.17,63.69,.08,.99,.13,1.98,.18,2.97-1-.05-1.99-.1-2.98-.18-24.06-1.75-46.51-11.99-63.69-29.17Z"/><rect class="cls-11" x="1614.7" y="607.9" width="3.95" height="83.44" transform="translate(14.16 1333.43) rotate(-45)"/><rect class="cls-11" x="1596.12" y="626.93" width="20.46" height="3.95" transform="translate(951.78 2224.97) rotate(-89.08)"/><rect class="cls-11" x="1611.27" y="645.45" width="3.95" height="20.23" transform="translate(844.19 2217.9) rotate(-85.91)"/></g><g><path class="cls-11" d="M1746.25,577.04c-26.98,.62-52.36,11.48-71.46,30.58-12.74,12.75-21.81,28.29-26.62,45.24-.77,2.7-1.43,5.45-1.98,8.22-.89,4.43-1.48,8.93-1.77,13.49-.1,1.49-.17,3.01-.21,4.52l-.02,.85-.03,1.1v.12h.05l1.93-.05h.09c.65-.02,1.3-.03,1.94-.06,.02,0,.03,0,.05,0,26.25-1.09,50.85-11.88,69.49-30.5,19.09-19.1,29.95-44.48,30.58-71.46l.05-2.07-2.07,.05Zm-31.35,70.69c-17.17,17.18-39.63,27.42-63.69,29.17-.99,.08-1.98,.13-2.97,.18,.04-1,.1-1.99,.17-2.97,1.75-24.06,12-46.52,29.18-63.69,17.87-17.88,41.48-28.25,66.66-29.35-1.1,25.18-11.47,48.79-29.35,66.66Z"/><rect class="cls-11" x="1633.96" y="647.65" width="83.44" height="3.95" transform="translate(31.44 1375.16) rotate(-45)"/><rect class="cls-11" x="1684.03" y="618.67" width="3.95" height="20.46" transform="translate(-9.81 26.94) rotate(-.91)"/><rect class="cls-11" x="1669" y="653.58" width="20.23" height="3.95" transform="translate(-42.58 121.74) rotate(-4.1)"/></g><g><path class="cls-11" d="M1724,506.23c-21.1,.49-40.95,8.98-55.88,23.92-9.25,9.24-16.02,20.37-19.95,32.51-.76,2.34-1.42,4.73-1.95,7.14-.87,3.83-1.46,7.73-1.77,11.69-.12,1.5-.2,3.02-.23,4.54l-.02,.81-.03,1.15v.12h.05l1.98-.05h.04c.65-.02,1.29-.04,1.94-.07h.09c20.35-.97,39.4-9.38,53.86-23.84,14.93-14.93,23.43-34.78,23.92-55.88l.05-2.07-2.07,.05Zm-24.68,55.11c-13,13-29.91,20.87-48.08,22.47-1,.09-2,.17-3.01,.21,.05-1,.12-2.01,.21-3.01,1.61-18.16,9.47-35.08,22.47-48.07,13.71-13.71,31.78-21.72,51.08-22.67-.96,19.3-8.96,37.36-22.67,51.08Z"/><rect class="cls-11" x="1636.68" y="561.15" width="64.9" height="3.95" transform="translate(90.69 1345.19) rotate(-45)"/><rect class="cls-11" x="1683.26" y="547.14" width="3.95" height="15.91" transform="translate(1103.39 2231.28) rotate(-89.09)"/><rect class="cls-11" x="1656.64" y="558.48" width="15.73" height="3.95" transform="translate(986.51 2180.65) rotate(-85.9)"/></g><g><path class="cls-11" d="M1648.22,586.83l-.02-.81c0-.36-.02-.74-.04-1.1-.03-1.15-.09-2.3-.19-3.44-.31-3.96-.89-7.86-1.76-11.69-.55-2.46-1.22-4.88-2-7.26-3.94-12.09-10.7-23.17-19.91-32.39-14.93-14.94-34.78-23.43-55.88-23.92l-2.07-.05,.05,2.07c.49,21.1,8.98,40.95,23.92,55.88,14.46,14.46,33.51,22.86,53.86,23.84h.05c.66,.03,1.32,.06,1.98,.07h.04l1.94,.05h.09v-.12l-.03-1.15Zm-55.12-25.49c-13.71-13.71-21.72-31.78-22.67-51.08,19.3,.96,37.36,8.96,51.08,22.67,12.99,12.99,20.87,29.91,22.47,48.07,.09,1,.17,2.01,.21,3.01-1-.05-2.01-.12-3.01-.21-18.17-1.6-35.08-9.47-48.08-22.47Z"/><rect class="cls-11" x="1621.3" y="530.67" width="3.95" height="64.9" transform="translate(77.26 1312.77) rotate(-45)"/><rect class="cls-11" x="1599.21" y="553.12" width="15.91" height="3.95" transform="translate(-8.68 25.79) rotate(-.92)"/><rect class="cls-11" x="1625.92" y="552.59" width="3.95" height="15.73" transform="translate(-35.85 117.6) rotate(-4.09)"/></g><g><path class="cls-11" d="M1647.65,513.11l-.02-.96v-.05c-.02-1.16-.09-2.33-.2-3.48-.23-2.6-.65-5.17-1.26-7.68-2.25-9.35-7.02-17.92-13.96-24.87-9.63-9.63-22.42-15.1-36.02-15.41l-2.07-.05,.05,2.07c.32,13.6,5.79,26.4,15.41,36.02s21.55,14.72,34.63,15.36c.16,.02,.31,.02,.47,.02,.31,.02,.62,.02,.93,.03l.57,.02,1.5,.03v-.08l-.02-.99Zm-35.27-17.19c-8.41-8.41-13.39-19.42-14.16-31.21,11.78,.78,22.8,5.77,31.2,14.16,7.66,7.66,12.48,17.49,13.86,28.09,.13,1.03,.24,2.06,.31,3.11-1.04-.07-2.08-.17-3.11-.31-10.61-1.38-20.44-6.19-28.09-13.85Z"/><rect class="cls-11" x="1629.08" y="476.93" width="3.95" height="41.27" transform="translate(125.9 1299.07) rotate(-45)"/><rect class="cls-11" x="1615.75" y="490.48" width="10.12" height="3.95" transform="translate(-7.68 26.01) rotate(-.92)"/><rect class="cls-11" x="1632.02" y="490.87" width="3.95" height="10" transform="translate(-31.24 117.94) rotate(-4.09)"/></g><g><path class="cls-11" d="M1696.16,460.67c-13.61,.32-26.4,5.79-36.02,15.41-6.94,6.94-11.72,15.52-13.97,24.87-.6,2.51-1.02,5.08-1.25,7.68-.1,1.15-.17,2.32-.2,3.48v.05l-.02,.95-.02,1v.08l1.49-.03,.57-.02c.31,0,.62-.02,.93-.03,.17,0,.32-.02,.49-.02,13.07-.65,25.32-6.07,34.6-15.36,9.63-9.62,15.11-22.42,15.41-36.02l.05-2.07-2.06,.05Zm-16.19,35.26c-7.66,7.66-17.49,12.47-28.1,13.85-1.03,.13-2.06,.24-3.11,.31,.07-1.04,.17-2.07,.31-3.1,1.38-10.61,6.2-20.44,13.86-28.1,8.41-8.4,19.42-13.38,31.21-14.16-.78,11.79-5.77,22.8-14.16,31.21Z"/><rect class="cls-11" x="1640.65" y="495.59" width="41.27" height="3.95" transform="translate(134.75 1320.44) rotate(-45)"/><rect class="cls-11" x="1669.55" y="487.4" width="3.95" height="10.12" transform="translate(1152.47 2155.92) rotate(-89.09)"/><rect class="cls-11" x="1653.34" y="493.89" width="10" height="3.95" transform="translate(1045.17 2114.51) rotate(-85.9)"/></g></svg>