<?xml version="1.0" encoding="utf-8"?>
<!-- Generator: Adobe Illustrator 26.3.1, SVG Export Plug-In . SVG Version: 6.00 Build 0)  -->
<svg version="1.1" id="Layer_1" xmlns="http://www.w3.org/2000/svg" xmlns:xlink="http://www.w3.org/1999/xlink" x="0px" y="0px"
	 viewBox="0 0 144.76 34" enable-background="new 0 0 144.76 34" xml:space="preserve">
<path fill-rule="evenodd" clip-rule="evenodd" fill="#F64060" d="M139.64,21.02c-0.16-0.97-0.48-1.29-0.76-1.4
	c-0.84-0.32-1.95,1.09-2.86,0.58c-0.09-0.05-0.13-0.07-0.17-0.13c-0.41-0.66,2.6-2.13,3.5-4.91c0.09-0.27,0.81-2.62-0.52-4.56
	c-1.05-1.52-2.73-1.89-3.34-2.02c-0.34-0.07-3.26-0.66-5.05,1.16c-0.85,0.86-1.16,1.88-1.27,2.7c-0.18,1.42-0.2,3.9-0.38,5.02
	c-0.12,0.74-0.66,1.85-1.74,1.75c-2.08-0.2-3.04-1-2.97-2.31c0.02-0.37,0.03-0.62,0.05-0.93c0.15-1.92,0.36-1.99,0.27-2.22
	c-0.29-0.74-1.64-1.26-2.25-0.84c-0.59,0.4-0.11,1.44-0.55,3.99c-0.2,1.2-0.4,1.51-0.59,1.72c-0.79,0.89-2.44,1.14-3.16,0.45
	c-0.18-0.17-0.37-0.46-0.38-1.84c-0.01-1.75,0.29-2.96,0.52-5.1c0.18-1.67,0.1-1.88-0.05-2.04c-0.87-0.91-4.23,0-5.18,2.02
	c-0.63,1.35,0.33,2.08-0.18,3.64c-0.68,2.06-3.39,3.89-5.42,3.22c-1.58-0.52-2.17-2.35-2.68-3.94c-0.83-2.59-1.03-6.44,0.73-7.49
	c0.15-0.09,0.88-0.22,2.34-0.5c2.61-0.51,2.98-0.84,2.99-1.66c0-0.4-0.02-0.96-0.47-1.11c-0.57-0.19-1-0.25-1.83-0.29
	c-0.2-0.01-1.86-0.12-3-1.07c-0.96-0.8-0.75-1.52-1.82-2.14c-0.43-0.25-1.27-0.61-1.63-0.29c-0.52,0.46,0.62,1.79,0.13,2.43
	c-0.75,0.99-5.01-0.07-6.16,0.3c-0.11,0.03-0.41,0.12-0.6,0.4c-0.16,0.23-0.17,0.48-0.2,0.64c-0.06,0.26,0.08,1.85,0.15,2.53
	c0.08,0.68,0.23,1.61,0.32,1.75c0.09,0.14,0.38,0.54,1.19,0.44c2.75-0.34,4.58-0.76,4.95-0.85c0.22-0.05,0.32-0.09,0.37-0.06
	c0.07,0.05,0.05,0.18,0.05,0.21c-0.05,0.4,0.55,2.7,0.69,3.54c0.25,1.58,0.04,5.38-2.48,7.32c-0.99,0.77-2,0.98-2.42,1.06
	c-1.68,0.33-4.03,0.04-4.52-1.14c-0.26-0.64,0.23-1.01,0.69-2.51c0.38-1.24,1.1-3.63,0-5.08c-0.94-1.23-2.96-1.48-4.46-0.99
	c-0.29,0.1-2.21,0.76-2.68,2.41c-0.71,2.5,2.73,4.45,1.84,6.78c-0.39,1.02-1.34,1.42-1.51,1.49c-1.91,0.8-5.54-0.77-5.09-2.48
	c0.04-0.15,1.43-2.43,1.46-4.62c0.01-0.59,0.05-1.86-0.75-2.72c-1.4-1.51-4.82-1.21-6.34,0.67c-0.94,1.16-0.9,2.62-0.87,3.09
	c0.2,2.67,1.61,3.65,2.2,4.71c0.31,0.55-8.68,4.11-9.02,0.78c-0.35-3.31,4.57-10.44,4.18-13.21c-0.35-2.49-2.02-3.01-3.48-3.04
	c-1.42-0.03-1.79,0.2-2.27,0.48c-0.28,0.16-0.67,0.48-1.22-0.05c-0.37-0.35-0.61-0.59-1-0.9c-0.2-0.16-0.51-0.36-1.04-0.43
	c-0.21-0.03-1-0.16-1.64,0.19c-0.99,0.53-0.73,1.67-1.56,2.05c-0.46,0.21-0.88,0-1.68-0.27c-0.11-0.04-2.71-0.85-4.39-0.77
	c-1.35,0.07-2.31,0.88-3.22,1.66c-1.64,1.4-1.15,3.01-4.36,12.93c-0.35,1.07-0.25,2.07,0.15,2.88c0.72,1.44,2.59,2.52,3.71,2
	c0.38-0.18,0.72-0.55,0.83-0.99c0.2-0.78-0.37-1.54-0.52-1.75c-1.47-2.15-0.86-8.55,2.42-11.79c1.24-1.23,2.28-1.42,2.56-1.47
	C57.56,7.88,59,8.4,59.87,9.27c2.44,2.43,1.4,8.39-1.18,9.9c-0.59,0.34-1.83,0.79-1.8,1.42c0.01,0.29,0.29,0.49,0.52,0.66
	c0.72,0.53,1.81,0.66,2.67,0.27c0.77-0.35,1.16-1.01,1.38-1.4c1.7-3.09,1.11-5.26,2.82-8.06c0.94-1.55,1.77-1.95,2.36-2.09
	c0.19-0.04,1.36-0.31,1.95,0.28c0.84,0.83,0,2.82-1.89,9.24c-0.52,1.76-0.83,2.86-0.24,3.74c0.59,0.87,1.72,1.01,3.32,1.18
	c4.2,0.45,8.48-0.95,9.36-2.15c0.09-0.12,0.45-0.63,0.85-0.62c0.11,0,0.21,0.12,0.47,0.35c0.87,0.77,2.49,1.86,4.08,1.86
	c3.62,0,6.26-2.26,6.38-2.34c0.04-0.03,0.09-0.02,0.12,0.01c0.22,0.24,2.46,1.49,4.03,1.54c3.74,0.12,5.95-1.95,6.79-2.93
	c0.46-0.54,0.89-1.1,1.29-1.69c0.04-0.06,0.12-0.08,0.19-0.04c0.01,0.01,0.02,0.01,0.02,0.02c0.22,0.25,1.91,3.35,5.26,2.92
	c1.87-0.24,4.65-1.82,4.84-2.03c0.03-0.04,0.08-0.04,0.12-0.01c0.01,0.01,0.02,0.02,0.02,0.04c0.1,0.27,0.53,1.79,2.24,3
	c1.4,0.99,4.11,1.19,5.31,0.53c0.99-0.55,1.39-0.9,2.09-1.59c0.3-0.3,0.75-0.6,1.58-0.43c0.92,0.19,3.34,0.62,3.5,0.7
	c0.17,0.08,0.2,0.4,0.15,0.73c-0.28,1.77-0.06,2.69-0.48,4.06c-0.19,0.62-1.59,5.21-0.15,6.34c0.67,0.53,2,0.34,2.76-0.32
	c1.39-1.21,0.58-4.29,0.98-6.61c0.42-2.46,0.58-3.15,0.73-3.42c0.03-0.05,0.05-0.09,0.08-0.11c0.47-0.34,1.41-0.03,1.76,0.08
	c1.34,0.45,2.76,0.32,3.59,0.07C138.21,22.24,138.92,21.9,139.64,21.02z M81.8,14.34c-0.06,0.8-0.26,1.31-0.69,2.06
	c-0.27,0.46-0.54,0.12-0.7-0.11c-0.23-0.33-1.4-3.18-0.51-3.77c0.25-0.17,0.75-0.26,1.12-0.06c0.36,0.2,0.58,0.5,0.68,0.83
	C81.8,13.61,81.84,13.8,81.8,14.34 M92.93,14.75c-0.1,0.93-0.5,1.45-0.64,1.65c-0.26,0.34-0.36,0.48-0.6,0.23
	c-0.2-0.2-0.94-1.72-1.05-2.72c-0.06-0.54,0.09-1.3,0.54-1.48c0.47-0.19,0.95-0.1,1.29,0.34C93,13.46,93,14.09,92.93,14.75
	 M133.31,18.81c-0.56,0.23-0.8,0.09-0.77-0.83c0.01-0.2,0.9-4.83,2.62-5.67c0.49-0.24,0.98-0.23,1.32,0.15
	c0.65,0.72,0.48,1.83-0.01,2.84C135.77,16.76,134.08,18.5,133.31,18.81"/>
<path fill-rule="evenodd" clip-rule="evenodd" fill="#F64060" d="M25.97,9.14"/>
<g>
	<path fill="#F64060" stroke="#F64060" stroke-miterlimit="10" d="M51.41,13.29c0,0.19-0.02,0.35-0.07,0.49
		c-0.05,0.14-0.12,0.26-0.2,0.36c-0.09,0.1-0.18,0.19-0.29,0.26c-0.11,0.07-0.23,0.14-0.36,0.2c-0.37,0.18-0.78,0.34-1.23,0.48
		c-0.45,0.14-0.89,0.26-1.34,0.36c-0.45,0.1-0.89,0.19-1.32,0.25s-0.81,0.1-1.14,0.13c-0.23,0.02-0.46,0.04-0.71,0.06
		s-0.49,0.05-0.72,0.08c-0.23,0.03-0.45,0.06-0.65,0.1c-0.2,0.03-0.38,0.07-0.52,0.1c-0.19,0.73-0.36,1.44-0.5,2.11
		c-0.14,0.67-0.27,1.31-0.38,1.91c-0.03,0.16-0.07,0.39-0.12,0.69c-0.04,0.31-0.09,0.63-0.13,0.96c-0.04,0.33-0.07,0.65-0.1,0.94
		s-0.04,0.51-0.04,0.63c0,0.32,0.05,0.54,0.14,0.67c0.09,0.12,0.19,0.23,0.29,0.3c0.15,0.12,0.27,0.26,0.36,0.42
		c0.08,0.16,0.13,0.34,0.13,0.57c0,0.17-0.07,0.33-0.2,0.49c-0.13,0.15-0.3,0.28-0.49,0.4c-0.19,0.11-0.4,0.2-0.61,0.27
		c-0.22,0.07-0.4,0.1-0.57,0.1c-0.29,0-0.55-0.08-0.78-0.24c-0.23-0.16-0.42-0.37-0.56-0.63c-0.15-0.26-0.27-0.55-0.35-0.88
		c-0.08-0.32-0.12-0.65-0.12-0.99c0-0.57,0.04-1.19,0.13-1.85s0.21-1.34,0.36-2.03c0.06-0.3,0.14-0.64,0.22-1
		c0.08-0.37,0.16-0.72,0.22-1.06c0.07-0.34,0.13-0.63,0.18-0.89c0.05-0.25,0.07-0.41,0.07-0.47c-0.1,0-0.24,0-0.43,0.01
		c-0.19,0.01-0.39,0.02-0.6,0.03c-0.21,0.01-0.41,0.02-0.6,0.03c-0.19,0.01-0.33,0.01-0.43,0.01c-0.29,0-0.6-0.02-0.94-0.05
		c-0.33-0.03-0.66-0.09-0.98-0.16c-0.32-0.07-0.63-0.17-0.93-0.28c-0.3-0.11-0.56-0.25-0.78-0.4c0.01,0.04,0.02,0.11,0.04,0.2
		c0.02,0.09,0.03,0.19,0.05,0.29c0.02,0.1,0.03,0.2,0.04,0.3c0.01,0.1,0.02,0.18,0.02,0.25c0,0.34-0.03,0.69-0.1,1.06
		c-0.07,0.37-0.18,0.76-0.35,1.18c-0.15,0.36-0.34,0.72-0.55,1.08c-0.21,0.36-0.44,0.7-0.69,1.04c-0.25,0.33-0.51,0.64-0.78,0.93
		c-0.27,0.29-0.55,0.55-0.83,0.77c-0.63,0.51-1.38,0.88-2.25,1.12s-1.77,0.35-2.69,0.35c-0.4,0-0.77-0.11-1.12-0.32
		c-0.35-0.22-0.65-0.49-0.91-0.82c-0.26-0.33-0.46-0.69-0.61-1.08c-0.15-0.39-0.22-0.76-0.22-1.1c0-0.69,0.09-1.36,0.26-2
		c0.17-0.64,0.41-1.26,0.7-1.85c0.29-0.6,0.63-1.18,1.02-1.76c0.39-0.57,0.8-1.14,1.23-1.7c0.25-0.33,0.54-0.65,0.86-0.96
		c0.32-0.31,0.67-0.59,1.03-0.84c0.36-0.25,0.72-0.44,1.09-0.59c0.37-0.15,0.72-0.22,1.06-0.22c0.31,0,0.57,0.02,0.78,0.07
		s0.41,0.13,0.58,0.25c0.18,0.12,0.35,0.27,0.53,0.46c0.17,0.19,0.38,0.43,0.63,0.71c0.22,0.26,0.51,0.49,0.89,0.69
		c0.37,0.2,0.79,0.37,1.25,0.5c0.46,0.13,0.94,0.24,1.43,0.3c0.5,0.07,0.99,0.1,1.46,0.1c0.07,0,0.21-0.01,0.42-0.03
		c0.21-0.02,0.43-0.05,0.67-0.08c0.24-0.03,0.47-0.07,0.7-0.1s0.41-0.05,0.54-0.07c0.05-0.01,0.1-0.1,0.16-0.27
		c0.06-0.17,0.11-0.38,0.17-0.65c0.06-0.26,0.12-0.56,0.18-0.88c0.06-0.32,0.12-0.63,0.17-0.94c0.05-0.31,0.1-0.59,0.15-0.85
		s0.08-0.46,0.12-0.6c0.11-0.39,0.21-0.81,0.29-1.28c0.08-0.46,0.19-0.89,0.32-1.28c0.13-0.39,0.31-0.72,0.53-0.99
		c0.22-0.26,0.52-0.4,0.91-0.4c0.44,0,0.75,0.11,0.95,0.34c0.19,0.23,0.29,0.58,0.29,1.04c0,0.22-0.02,0.46-0.07,0.73
		c-0.05,0.27-0.12,0.55-0.21,0.84c-0.19,0.66-0.36,1.26-0.49,1.81c-0.13,0.55-0.25,1.04-0.34,1.45c-0.09,0.41-0.16,0.75-0.21,1.02
		s-0.07,0.44-0.08,0.52c0.32-0.02,0.63-0.03,0.94-0.05c0.31-0.02,0.63-0.04,0.95-0.06s0.66-0.06,1.01-0.09
		c0.35-0.03,0.73-0.08,1.14-0.13c0.36-0.04,0.7-0.1,1.02-0.16c0.32-0.06,0.62-0.12,0.89-0.18c0.27-0.06,0.5-0.11,0.69-0.15
		c0.19-0.04,0.33-0.06,0.42-0.06c0.09-0.01,0.17-0.02,0.26-0.04c0.08-0.02,0.16-0.03,0.23-0.03c0.09,0,0.17,0.01,0.24,0.02
		c0.07,0.01,0.13,0.04,0.18,0.08s0.09,0.11,0.12,0.21C51.4,13.01,51.41,13.13,51.41,13.29z M32.17,16.75c0-0.22-0.01-0.45-0.04-0.7
		c-0.03-0.25-0.08-0.48-0.14-0.7c-0.07-0.22-0.16-0.4-0.27-0.54c-0.12-0.15-0.26-0.22-0.43-0.22c-0.28-0.12-0.5-0.23-0.67-0.32
		c-0.17-0.09-0.31-0.17-0.41-0.24c-0.1-0.06-0.18-0.12-0.22-0.16c-0.05-0.04-0.08-0.06-0.1-0.06c-0.07,0-0.17,0.06-0.28,0.18
		c-0.11,0.12-0.24,0.26-0.38,0.43s-0.29,0.37-0.44,0.58c-0.15,0.21-0.29,0.41-0.43,0.6c-0.17,0.22-0.33,0.44-0.48,0.65
		c-0.15,0.21-0.3,0.43-0.44,0.66c-0.14,0.23-0.28,0.47-0.42,0.72s-0.28,0.53-0.43,0.83c-0.07,0.14-0.12,0.31-0.18,0.51
		c-0.05,0.2-0.1,0.41-0.13,0.63c-0.04,0.22-0.06,0.44-0.08,0.65c-0.02,0.22-0.03,0.41-0.03,0.6c0,0.08,0.02,0.18,0.07,0.3
		c0.04,0.12,0.1,0.24,0.18,0.34c0.07,0.11,0.16,0.2,0.25,0.28c0.09,0.08,0.18,0.12,0.27,0.12c0.37,0,0.69-0.02,0.95-0.06
		c0.26-0.04,0.51-0.11,0.74-0.2c0.23-0.1,0.46-0.23,0.7-0.4c0.23-0.17,0.51-0.38,0.83-0.64c0.29-0.24,0.59-0.55,0.88-0.94
		c0.3-0.38,0.56-0.78,0.8-1.17c0.06-0.11,0.12-0.25,0.16-0.41c0.04-0.16,0.08-0.33,0.11-0.5c0.03-0.17,0.05-0.33,0.06-0.47
		c0.01-0.15,0.02-0.25,0.02-0.32V16.75z"/>
</g>
<path fill-rule="evenodd" clip-rule="evenodd" fill="#F64060" d="M33.06-19.62"/>
<path fill="#F64060" stroke="#F64060" stroke-miterlimit="10" d="M8.02,8.33c0.79-0.1,1.52,0.26,1.78,0.85
	c0.38,0.86-0.36,1.86-0.98,2.27c-1.11,0.74-2.41,0.01-2.58-0.09c-1.43-0.83-1.59-2.63-1.6-2.84C4.5,6.67,5.76,5.42,5.98,5.2
	c1.89-1.88,4.63-1.06,4.98-0.95c0.5,0.16,1.97,0.63,2.76,2.08c0.43,0.79,0.55,1.68,0.45,2.94c-0.26,2.96-1.51,3.97-3.47,8.62
	c-0.97,2.3-1.46,3.47-1.51,4.83c-0.08,1.97,0.49,3.53-0.09,3.88c-0.41,0.25-1.21-0.2-1.69-0.76c-1.97-2.27,0.13-7.54,0.45-8.34
	c0.69-1.73,1.87-3.83,1.96-3.98c0.5-0.88,1.01-1.69,1.6-3.03c0.67-1.5,1-2.27,0.8-3.03c-0.31-1.2-1.55-1.89-2.49-2.08
	C8.42,5.12,6.79,5.62,6.15,6.91c-0.31,0.64-0.47,1.66,0,2.37c0.08,0.12,0.4,0.61,0.98,0.66c0.53,0.05,0.9-0.3,0.98-0.38"/>
<path fill="#F64060" d="M9.18,19.88"/>
<path fill="#F64060" stroke="#F64060" stroke-miterlimit="10" d="M9.12,18.02c0.61-1.02,1.28-2.31,1.53-2.82
	c1.63-3.34,1.33-6.14,3.25-7.87c1.44-1.29,3.56-1.95,5.7-1.25c2.88,0.94,4.8,3.64,5.45,5.9c0.63,2.15,1.21,7.4,1.08,8.73
	c-0.01,0.11-0.06,0.5,0.16,0.81c0.24,0.35,0.7,0.42,0.98,0.45c0.97,0.12,1.35-0.37,1.62-0.11c0.36,0.33,0.03,1.46-0.19,1.94
	c-0.02,0.04-0.03,0.06-0.03,0.07c-0.24,0.45-0.91,0.47-1.63,0.47c-0.47,0-0.71,0.01-1.01-0.06c-0.88-0.2-1.43-0.75-1.66-0.98
	c-0.49-0.5-0.74-1.01-0.81-1.17c-0.26-0.56-0.27-1.33-0.29-2.84c-0.03-2.47-0.03-2.87,0.01-3.5c0.04-0.82,0.07-0.8,0.06-1.13
	c-0.06-1.49-0.67-2.56-0.87-2.88c-0.24-0.39-0.6-0.97-1.28-1.45c-0.91-0.65-1.82-0.73-2.23-0.76c-1.86-0.13-3.23,0.9-3.62,1.2
	c-0.48,0.37-1.06,0.93-2.34,3.38c-1.94,3.7-2.92,5.54-3.5,7.8c-0.24,0.94-0.39,1.76-0.84,1.85c-0.65,0.13-1.75-1.34-1.54-2.43
	c0.05-0.27,0.27-0.63,0.72-1.34c0.22-0.35,0.31-0.46,0.65-0.99C8.5,19.03,8.79,18.58,9.12,18.02z"/>
<path fill-rule="evenodd" clip-rule="evenodd" fill="#F64060" d="M60.35-2.19"/>
</svg>
